<?xml version="1.0" encoding="utf-8"?>
<!-- Generator: Adobe Illustrator 25.4.1, SVG Export Plug-In . SVG Version: 6.00 Build 0)  -->
<svg version="1.1" id="Layer_1" xmlns="http://www.w3.org/2000/svg" xmlns:xlink="http://www.w3.org/1999/xlink" x="0px" y="0px"
	 viewBox="0 0 460 136.1" style="enable-background:new 0 0 460 136.1;" xml:space="preserve">
<style type="text/css">
	.st0{fill:#fff;}
</style>
<g>
	<path class="st0" d="M70.3,43.4c-0.2-0.4-0.5-0.7-1.2-0.8c-0.6-0.1-1.4-0.2-2.2-0.1c-0.8,0-1.7,0.1-2.5,0.3
		c-0.9,0.1-1.6,0.3-2.1,0.4c-1.5,1-2.6,1.9-3.4,2.8c-0.8,0.9-1,1.8-0.6,2.7c0.7,1.7,1.5,3.1,2.5,4c1,1,2.2,2,3.7,3.1
		c1,0.8,2.1,1.6,3.1,2.5c0-0.4,0.1-0.9,0.2-1.3c0.1-0.5,0.2-0.9,0.3-1.4c0.4-2.4,1-4.7,1.7-7C70.5,46.3,70.7,44.6,70.3,43.4
		 M121.2,20c0.1,0.6-0.1,1.1-0.8,1.7c-0.7,0.5-1.5,1-2.4,1.5c-0.9,0.5-1.9,0.9-2.8,1.3c-0.9,0.4-1.5,0.7-1.8,1.1
		c-0.6,0.6-0.9,1-1.1,1.4c-0.2,0.4-0.3,0.8-0.4,1.2c-0.1,0.4-0.2,0.9-0.3,1.3c-0.1,0.4-0.3,1-0.6,1.7c-0.7,1.4-1.2,2.6-1.5,3.8
		c-0.3,1.1-0.6,2.2-0.8,3.3c-0.2,1.1-0.3,2.2-0.4,3.3c-0.1,1.1-0.4,2.4-0.7,3.9c-0.3,1.3-0.6,2.4-0.8,3.4c-0.2,1-0.3,2-0.5,2.9
		c-0.1,0.9-0.2,1.8-0.3,2.8c-0.1,1-0.3,2.1-0.5,3.3c-0.1,1.2-0.3,2.6-0.5,4c-0.2,1.4-0.4,2.9-0.6,4.3c-0.2,1.4-0.4,2.7-0.5,3.8
		c-0.2,1.1-0.3,2-0.3,2.5c-0.2,1.4-0.4,2.7-0.5,3.7c-0.1,1.1-0.2,2.1-0.3,3.1c-0.1,1-0.2,2.1-0.3,3.2c-0.1,1.1-0.2,2.3-0.4,3.7
		c-0.1,1.1-0.2,2-0.3,2.8c-0.1,0.8-0.1,1.6-0.1,2.3c0,0.8,0,1.5-0.1,2.3c0,0.8-0.2,1.8-0.3,2.9c-0.1,0.8-0.1,1.7-0.1,2.6
		c0.1,0.9,0.1,1.7,0,2.5c-0.1,0.8-0.2,1.5-0.6,2.1c-0.3,0.6-0.9,1.2-1.8,1.5c-0.7,0.3-1.3,0.2-1.7-0.4c-0.4-0.6-0.9-1-1.4-1.2
		c-2.3-2.7-4.4-5.1-6.3-7.2c-1.9-2.2-3.8-4.2-5.6-6.1c-1.8-1.9-3.7-3.8-5.6-5.7c-1.9-1.9-4.1-3.9-6.5-6c-0.1,1.4-0.3,2.9-0.6,4.4
		c-0.3,1.5-0.4,2.6-0.4,3.1c-0.1,1.4-0.2,2.7-0.3,3.7C70.5,91,70.4,92,70.4,93c0,1,0,2.1,0,3.2c0,1.1-0.1,2.3-0.1,3.8
		c0,1.1-0.1,2-0.1,2.9c0,0.8,0,1.6,0.1,2.4c0,0.8,0.1,1.6,0.1,2.5c0,0.9,0.1,1.9,0.1,3.1c0,0.9,0,1.8,0.2,2.6
		c0.1,0.8,0.2,1.6,0.2,2.3c0,0.7-0.2,1.4-0.5,2c-0.3,0.6-0.9,1.1-1.7,1.6c-0.7,0.3-1.2,0.3-1.6-0.1c-0.4-0.4-0.8-0.7-1.4-1
		c-2.6-2.7-5-5.1-7.1-7.2c-2.1-2.1-4.3-4.1-6.4-5.9c-2.1-1.8-4.3-3.7-6.6-5.5c-2.3-1.8-4.9-3.8-7.9-6c-1.7-1.2-3.2-2.4-4.5-3.5
		c-1.3-1.1-2.6-2.1-3.9-3.2c-1.3-1-2.6-2.1-3.9-3.2c-1.3-1.1-2.8-2.3-4.4-3.5c-0.9-0.7-1.7-1.4-2.4-1.9c-0.6-0.6-1.3-1.1-2-1.6
		c-0.7-0.5-1.4-0.9-2.3-1.2c-0.8-0.3-1.9-0.6-3.2-0.8c-0.9-0.1-1.9,0-3,0.3c-1.1,0.4-2.1,0.6-3.1,0.8c-1,0.1-1.9,0.4-2.9,0.8
		c-0.9,0.4-1.6,0.3-2-0.3c-0.4-0.6-0.2-1.3,0.6-2.1c0.8-0.7,1.6-1.4,2.4-1.9c1.3-0.8,2.3-1.5,3.1-2c0.8-0.5,1.6-0.9,2.3-1.3
		c0.8-0.4,1.5-0.8,2.3-1.2c0.8-0.4,1.8-1.1,3.1-1.9c1-0.6,1.8-1.1,2.5-1.6c0.7-0.5,1.3-0.9,1.9-1.3c0.6-0.4,1.3-0.9,1.9-1.3
		c0.7-0.5,1.5-1,2.5-1.6c0.3-0.2,0.8-0.5,1.5-0.9c0.7-0.4,1.4-0.8,2.1-1.1c0.7-0.3,1.4-0.6,1.9-0.7c0.6-0.1,0.9-0.1,1,0.1
		c0.3,0.5,0,1.2-0.8,1.9c-0.8,0.8-1.5,1.4-2.1,2c-0.1,0-0.1,0.1-0.2,0.2c-0.1,0.1-0.1,0.1-0.2,0.2c-1,0.9-1.8,1.7-2.4,2.5
		c-0.6,0.7-0.6,1.5-0.2,2.5c0.8,1.6,1.7,2.9,2.8,3.9c1.1,1,2.3,1.9,3.9,2.9c1.5,0.8,2.9,1.9,4.3,3c1.4,1.2,3,2.5,4.6,3.9
		c1.2,1.1,2.4,2,3.5,2.7c1.1,0.7,2.3,1.7,3.6,2.8c0.1,0.1,0.2,0.2,0.3,0.3c0.1,0.1,0.2,0.2,0.3,0.3c0.9,0.9,2.2,2.2,3.9,4
		c1.7,1.8,3.5,3.5,5.4,5.3c1.9,1.8,3.6,3.3,5.2,4.5c1.6,1.3,2.6,1.7,3.2,1.5c0.3-0.1,0.4-0.6,0.5-1.4c0.1-0.8,0.1-1.8,0-2.9
		c0-1.1-0.1-2.2-0.2-3.4c-0.1-1.2-0.1-2.2-0.1-3c0-1.2,0-2.3,0-3.3c0-1,0.1-1.9,0.1-2.8c0.1-0.9,0.1-1.8,0.2-2.7
		c0.1-0.9,0.1-2,0.1-3.2c0-0.7,0-1.8,0.1-3.2c0.1-1.4,0.2-2.5,0.3-3.2c-1.1-1-2.1-1.9-3-2.8c-0.9-0.8-1.7-1.6-2.6-2.4
		c-0.9-0.8-1.8-1.6-2.7-2.5c-1-0.9-2.1-1.9-3.4-3.1c-1.6-1.5-3-2.8-4.1-4c-1.1-1.1-2.8-2.1-5.3-2.7c-0.9-0.2-1.7-0.3-2.4-0.3
		c-0.7,0.1-1.6,0.1-2.5,0.2c-1,0-1.9,0.2-2.9,0.5c-1,0.3-1.6,0.1-1.9-0.5c-0.3-0.7-0.1-1.3,0.8-2c0.8-0.6,1.7-1.2,2.5-1.6
		c1.3-0.7,2.4-1.2,3.2-1.6c0.8-0.4,1.6-0.7,2.4-1.1c0.8-0.3,1.6-0.6,2.4-1c0.8-0.4,1.9-0.9,3.2-1.5c1-0.5,1.9-1,2.6-1.4
		c0.7-0.4,1.4-0.8,2-1.1c0.7-0.4,1.3-0.7,2-1.1c0.7-0.4,1.5-0.8,2.6-1.3c1.1-0.5,2.2-1,3.4-1.4c1.1-0.4,2.3-0.9,3.4-1.4
		c0.6-0.3,1.4-0.5,2.4-0.7c0.9-0.2,1.7-0.4,2.4-0.7c0.9-0.4,1.6-0.7,2.2-1c0.6-0.3,1.1-0.5,1.6-0.7c0.5-0.2,1-0.4,1.6-0.7
		c0.6-0.3,1.3-0.6,2.2-1c0.4-0.2,1-0.4,1.7-0.8c0.8-0.3,1.5-0.7,2.3-1c1-0.4,1.9-0.6,2.7-0.8c0.9-0.2,1.3,0,1.5,0.4
		c0.2,0.6-0.1,1.2-0.7,1.8c-0.7,0.6-1.4,1.2-2.4,1.7c-0.9,0.6-1.8,1.1-2.7,1.5c-0.9,0.5-1.5,0.9-1.7,1.2c-0.9,1.2-1.4,2.3-1.5,3.2
		c-0.1,0.9-0.5,2-0.9,3.2c-0.6,1.5-1,2.8-1.4,4c-0.4,1.1-0.7,2.2-1,3.3c-0.3,1.1-0.5,2.2-0.7,3.3c-0.2,1.1-0.4,2.4-0.6,3.9
		c-0.1,0.7-0.2,1.3-0.2,1.9c0,0.6-0.1,1.1-0.2,1.7c0.2,0.1,0.4,0.3,0.5,0.5c0.1,0.2,0.3,0.4,0.5,0.5c1.1,1.2,2.2,2.2,3.1,3.1
		c0.9,0.9,1.9,2,3.1,3.3c1.4,1.7,3,3.5,4.8,5.4c1.8,2,3.6,3.8,5.3,5.5c1.9,2,3.9,4,5.8,6.1c0.1,0.2,0.4,0.2,0.6,0.1
		c0.4-0.1,0.6-0.7,0.9-1.6c0.2-0.9,0.4-2,0.4-3.1c0.1-1.1,0.1-2.2,0.1-3.3c0-1,0.1-1.8,0.1-2.2c0.1-1.2,0.2-2.3,0.3-3.3
		c0.1-1,0.2-1.9,0.3-2.7c0.1-0.9,0.2-1.8,0.3-2.7c0.1-0.9,0.2-2,0.4-3.2c0.1-0.9,0.3-1.8,0.5-2.7c0.2-0.9,0.4-1.8,0.5-2.7
		c0.1-1.1,0.2-2,0.3-2.7c0.1-0.7,0.2-1.5,0.3-2.2c0.1-0.7,0.2-1.4,0.4-2.1c0.1-0.7,0.3-1.5,0.5-2.5c0.4-1.6,0.7-3.2,0.9-4.6
		c0.3-1.5,0.6-3,1.1-4.7c0.6-2,0.9-3.8,0.8-5.4c-0.1-1.6-0.3-2.9-0.6-4c-0.1-0.3-0.1-0.5-0.2-0.8c-0.2-0.7-0.7-1.1-1.5-1.3
		c-0.8-0.1-1.6-0.2-2.5-0.2c-0.9,0-1.7,0-2.5-0.1c-0.8,0-1.2-0.3-1.4-0.9c-0.2-0.6,0.1-1,0.7-1.4c0.6-0.4,1.4-0.7,2.3-1
		c0.7-0.2,1.3-0.4,2-0.7s1.5-0.4,2.5-0.5c1-0.1,1.8-0.3,2.5-0.5c0.9-0.3,1.7-0.5,2.3-0.8c0.6-0.2,1.2-0.4,1.6-0.6
		c0.5-0.2,1-0.3,1.6-0.6c0.6-0.2,1.4-0.5,2.3-0.7c0.4-0.1,1-0.3,1.7-0.6c0.7-0.3,1.5-0.5,2.3-0.7c1-0.3,1.9-0.5,2.8-0.6
		C120.6,19.4,121.1,19.5,121.2,20"/>
	<path class="st0" d="M147.3,60c-0.3-1.5-0.9-2.6-2-3.4c-1-0.8-2.3-1.4-3.7-1.8c-1.4-0.3-2.9-0.5-4.5-0.4c-1.5,0.1-3,0.3-4.4,0.7
		c-1.4,0.4-2.7,1-4.1,1.8c-1.3,0.8-2.5,1.8-3.5,2.8c-1,1-1.8,2.1-2.3,3.2c-0.5,1.1-0.7,2.1-0.5,2.9c0.2,0.8,0.5,1.4,0.8,1.7
		c0.3,0.3,0.8,0.5,1.4,0.5c0.6,0,1.4-0.1,2.4-0.4c1-0.3,2.3-0.6,3.7-1c4.4-1.2,8.8-2.4,13.2-3.5c0.8-0.2,1.6-0.6,2.4-1.2
		C147.1,61.5,147.4,60.8,147.3,60 M162.9,74.5c0.2,1.3-0.1,2.4-0.8,3.4c-2,2.8-4.5,5.2-7.7,7.4c-3.1,2.2-6.7,3.7-10.7,4.8
		c-3.5,0.9-6.8,1.4-10.1,1.6c-3.2,0.1-6.2-0.2-8.8-1.2c-2.7-0.9-5-2.4-7.1-4.4c-2-2-3.6-4.7-4.6-8.2c-0.8-2.7-0.9-5.5-0.3-8.3
		c0.6-2.8,1.8-5.5,3.6-8c1.9-2.5,4.2-4.8,7.1-6.7c2.9-2,6.3-3.5,10.1-4.5c4.8-1.3,8.9-1.3,12.3-0.1c3.4,1.2,6.5,3.2,9.2,6.2
		c0.7,0.7,1.2,1.5,1.7,2.5c0.4,1,0.8,2,0.9,3c0.1,0.5,0.1,1-0.1,1.6c-0.1,0.5-0.5,0.8-1.1,1c-5.2,1.1-10.3,2.3-15.4,3.6
		c-2.8,0.7-5.5,1.4-8.3,2.2c-0.9,0.2-1.8,0.4-2.7,0.6c-0.9,0.2-1.9,0.4-2.7,0.6c-0.4,0.1-1,0.4-2,0.9c-0.9,0.5-1.5,0.9-1.6,1.3
		c-0.1,0.3-0.1,0.8-0.1,1.4c0,0.6,0.1,1.3,0.3,2.1c0.3,1.2,0.9,2.4,1.6,3.6c0.9,1.3,2.1,2.4,3.4,3.3c1.3,1,2.5,1.6,3.5,1.9
		c1.1,0.3,2.7,0.5,4.6,0.7c2,0.2,4.2-0.1,6.8-0.7c2.9-0.7,5.5-2,7.7-3.7c2.2-1.7,4-3.7,5.4-6c0.5-0.8,0.9-1.6,1.2-2.4
		c0.3-0.8,1-1.3,1.8-1.5c0.7-0.1,1.2,0,1.8,0.4C162.5,73.3,162.8,73.8,162.9,74.5"/>
	<path class="st0" d="M189.5,79.5c0.1,0.7-0.4,1.1-1.3,1.2c-0.4,0-0.7,0.1-1,0.1c-0.3,0-0.7,0-1,0.1c-1.6,0.2-3,0.3-4.2,0.2
		c-1.1-0.1-2.5,0-4.2,0.2c-1.1,0.2-2,0.4-2.8,0.8c-0.8,0.4-1.7,0.6-2.9,0.8c-0.6,0.1-1.2,0.3-1.9,0.5c-0.7,0.2-1.4,0.4-1.9,0.5
		c-1.3,0.2-2.1-0.1-2.3-1.2c-0.1-0.4,0.1-0.7,0.3-0.9c0.3-0.2,0.7-0.5,1.2-0.7c0.5-0.2,1-0.5,1.5-0.8c0.5-0.3,1.1-0.8,1.6-1.4
		c0.6-0.7,1-1.4,1.1-2.1c0.1-0.7,0.1-1.3,0.1-1.9c-0.1-0.4-0.1-0.8-0.2-1.2c-0.1-0.4-0.2-0.8-0.2-1.2c0-0.1,0-0.3-0.1-0.4
		c0-0.8-0.1-1.7-0.1-2.7c0-1-0.1-1.8-0.2-2.6c-0.3-2.1-0.6-3.8-0.8-5.1c-0.2-1.3-0.6-3-1-4.9c-0.5-3.6-1.1-7.8-1.6-12.6
		c-0.6-4.8-1.2-9.5-1.8-14.1c-0.7-4.7-1.4-8.7-2.1-12.2c-0.2-0.9-0.5-1.8-1-2.8c-0.4-1-1.2-1.4-2.2-1.2c-0.8,0.1-1.6,0.5-2.2,1.1
		c-0.6,0.6-1.4,1-2.1,1.4c-0.2,0-0.3,0.1-0.4,0.1c-0.1,0.1-0.2,0.1-0.4,0.1c-0.5,0.1-1,0.1-1.4-0.1c-0.4-0.1-0.7-0.4-0.8-0.8
		c-0.1-0.7,0.1-1.3,0.7-2c0.6-0.6,1.3-1.3,2.2-2c0.9-0.7,1.8-1.3,2.9-2c1-0.7,1.9-1.4,2.8-2.1c0.9-0.8,1.7-1.7,2.3-2.5
		c0.6-0.9,1.1-1.6,1.6-2.4c0.5-0.7,1.1-1.3,1.7-1.9c0.6-0.5,1.3-0.8,2.2-1c1-0.1,1.5,0,1.7,0.4c0.2,0.4,0.3,1,0.4,1.7
		c0.1,1.1,0.2,1.9,0.2,2.4c0,0.5,0,1.2,0.2,2.4c0.1,0.4,0.2,1.2,0.3,2.2c0.2,1,0.3,1.8,0.3,2.2c0.2,1.9,0.5,3.5,0.7,5.1
		c0.2,1.5,0.5,3.2,0.7,5.1c0.1,0.4,0.2,1.3,0.4,2.4c0.2,1.2,0.4,2.4,0.6,3.8c0.2,1.3,0.4,2.6,0.6,3.8c0.2,1.2,0.3,2,0.4,2.4
		c0.3,2.2,0.5,4.1,0.8,5.8c0.3,1.7,0.5,3.7,0.8,5.8c0.2,1.6,0.3,2.8,0.3,3.7c0,0.9,0.1,2,0.3,3.3c0.1,0.4,0.1,0.9,0.2,1.4
		c0.1,0.5,0.2,1.1,0.3,1.7c0.5,4.2,1,8.4,1.5,12.6c0.2,1.6,0.6,3.3,1.2,5c0.6,1.7,1.5,3,2.9,3.7c0.6,0.4,1.2,0.6,1.8,0.7
		c0.6,0.1,1.1,0.1,1.6,0.2c0.5,0.1,0.9,0.2,1.2,0.4C189,78.4,189.3,78.8,189.5,79.5"/>
	<path class="st0" d="M234.4,65.2c0,1.3-0.4,2.4-1,3.2c-0.7,0.8-1.4,1.8-2.2,2.9c-0.4,0.6-0.9,1.1-1.4,1.5c-0.5,0.4-0.9,1-1.2,1.7
		c-0.3,0.5-0.6,1.3-1,2.3c-0.4,1-1,1.5-1.9,1.5c-0.3,0-0.5-0.1-0.6-0.4c-0.1-0.3-0.3-0.6-0.4-0.9c-0.1-0.3-0.3-0.6-0.5-0.9
		c-0.2-0.3-0.4-0.4-0.6-0.5c-0.2,0-0.4,0-0.5,0c-0.4,0-0.8,0-1.2,0c-1.4,0.6-2.8,1.2-4.3,1.8c-1.5,0.5-3.1,0.9-4.8,1
		c-4.4,0.2-8.1,0-11.2-0.8c-3.1-0.8-5.7-2-7.8-3.5c-2.1-1.6-3.7-3.5-4.8-5.8c-1.1-2.3-1.8-4.7-2.1-7.3c-0.3-2.6,0.1-5.2,1.2-7.7
		c1.1-2.5,2.7-4.8,4.9-6.9c2.2-2.1,4.8-3.8,7.9-5.1c3.1-1.3,6.5-2.1,10.1-2.3c2.7-0.1,4.9,0.1,6.7,0.8c1.8,0.6,3.6,1.4,5.3,2.4
		c0.1-0.3,0.2-0.5,0.2-0.7c0-0.3-0.1-0.6-0.3-0.9c-0.2-0.3-0.3-0.6-0.3-1c0-0.4,0.1-0.7,0.3-1.1c0.2-0.3,0.5-0.5,0.8-0.5
		c0.6,0,1.1,0.2,1.6,0.6c0.5,0.4,1,1,1.5,1.7c0.5,0.7,1,1.5,1.4,2.4c0.5,0.9,1,1.8,1.5,2.6c0.5,0.7,1.1,1.4,1.6,2
		c0.5,0.6,0.9,1.1,1.3,1.7c0.4,0.6,0.7,1.2,1,1.9c0.3,0.7,0.4,1.5,0.4,2.4c0,0.4-0.1,0.8-0.2,1.4c-0.1,0.6-0.4,0.8-0.9,0.8
		c-0.3,0-0.7-0.2-1.2-0.6c-0.5-0.4-1-0.9-1.5-1.5c-0.5-0.6-1-1.1-1.4-1.6c-0.5-0.5-0.8-0.8-0.9-1.1c-0.1-0.1-0.4-0.3-0.9-0.7
		c-0.5-0.4-1.1-0.8-1.7-1.3c-0.7-0.5-1.3-0.9-1.9-1.4c-0.6-0.4-1-0.7-1.1-0.9c-1.1-1-2.5-1.9-4.2-2.6c-1.7-0.7-3.6-1-5.6-0.9
		c-3.3,0.2-5.9,0.8-8,1.8c-2,1-3.6,2.3-4.7,3.9c-1.1,1.6-1.9,3.3-2.2,5.3c-0.3,1.9-0.4,4-0.3,6.1c0.2,2.1,0.6,4,1.3,5.8
		c0.7,1.8,1.7,3.4,3.1,4.7c1.3,1.4,3,2.4,5,3.1c2,0.7,4.4,1,7.1,0.9c2.7-0.1,5-0.8,7-2.1c2-1.3,3.8-2.6,5.4-4.2
		c0.2-0.2,0.7-0.6,1.3-1c0.7-0.5,1.2-0.8,1.5-1.1c0.6-0.5,1.3-1,2.1-1.5c0.8-0.6,1.6-0.8,2.3-0.8c0.3,0,0.5,0.1,0.7,0.4
		C234.4,64.5,234.5,64.8,234.4,65.2"/>
	<path class="st0" d="M280,50.8c0.1-1.2,0-2.1-0.5-2.8c-0.8-1.3-2.2-2.1-4.2-2.3c-1.4-0.2-2.9-0.1-4.6,0.3c-1.7,0.3-3.6,0.8-5.6,1.3
		c-1.5,0.3-3,0.9-4.4,1.7c-1.4,0.8-2.9,1.7-4.3,2.6c-0.2,0.1-0.3,0.1-0.3,0.2c0,0-0.1,0.1-0.3,0.1c-1.7,1.1-3.2,2.2-4.6,3.3
		s-2.6,2.3-3.6,3.5c-3.6,4.4-5.4,8-5.5,10.8c0.1,0.8,0.4,1.5,0.7,2.1c0.8,1.2,2.2,1.8,4.1,1.9c0.2,0,0.4,0,0.5,0
		c1.7,0.1,3.2-0.1,4.5-0.4c1.4-0.4,2.9-0.9,4.6-1.6c1.4-0.5,2.9-1.1,4.4-1.9c1.5-0.7,3.1-1.6,4.6-2.6c4-2.4,7.1-4.9,9.4-7.7
		c1.4-1.6,2.6-3.1,3.5-4.5C279.3,53.4,279.9,52.1,280,50.8 M284.3,55.5c-0.3,2-0.9,4.1-1.6,6.2c-0.7,2.2-1.7,4.1-3.1,5.7
		c-1.2,1.6-2.7,3-4.3,4.3c-1.7,1.3-3.5,2.5-5.4,3.6c-1.3,0.8-2.7,1.5-4.1,2c-1.4,0.5-2.8,1-4.2,1.4c-1.6,0.5-3.2,0.7-4.9,0.7
		c-1.7,0-3.3-0.1-4.7-0.2c-2.6-0.2-5-0.8-7.2-1.8c-2.2-1.1-3.9-2.6-5.2-4.7c-1.4-2.2-2.1-4.8-2.1-7.8c0-1.6,0.3-3.4,0.8-5.4
		c0.4-1.6,1.1-3.2,2-5c0.9-1.7,2-3.3,3.1-4.6c1-1.2,2.1-2.4,3.1-3.4c1-1,2.3-2.1,3.9-3c1.5-1,3.1-1.8,4.6-2.5
		c1.5-0.7,3.1-1.2,4.7-1.4c1.4-0.3,2.9-0.4,4.4-0.4c1.5,0,3,0.1,4.4,0.2c0.5,0.1,1.1,0.1,1.6,0.2c0.5,0.1,1,0.1,1.5,0.3
		c2.6,0.4,4.9,1.3,6.8,2.5c2,1.3,3.5,2.9,4.6,4.9c1.4,2.4,1.9,4.9,1.6,7.5C284.4,55.1,284.3,55.3,284.3,55.5"/>
	<path class="st0" d="M368.4,105c-0.2,0.6-0.5,0.7-1,0.5c-1-0.4-1.7-0.8-2.3-1.3c-0.6-0.5-1.3-0.9-2.3-1.3c-1.5-0.6-3.1-1.2-4.6-1.8
		c-0.8-0.3-1.6-0.6-2.4-0.9c-1.1-0.4-2.4-0.8-3.9-1.2c-1.5-0.4-2.8-0.8-4-1.2c-0.6-0.2-1.1-0.3-1.6-0.3c-0.5,0-1.1-0.1-1.6-0.3
		c-0.3-0.2-0.6-0.4-1-0.6c-0.3-0.2-0.4-0.6-0.3-1c0.1-0.3,0.2-0.5,0.5-0.7c0.2-0.2,0.5-0.3,0.8-0.3c0.3,0,0.6-0.1,0.9-0.2
		c0.3-0.1,0.6-0.2,0.9-0.4c0.5-0.4,1-0.6,1.4-0.8c0.4-0.1,0.7-0.5,0.9-1.1c0.6-1.8,0.4-3.7-0.3-5.5c-0.8-1.8-1.5-3.7-2.2-5.6
		c-0.4-1-0.6-1.9-0.8-2.7c-0.2-0.8-0.5-1.8-0.8-2.8c-0.3-0.8-0.5-1.5-0.6-2c-0.2-0.6-0.3-1.1-0.4-1.6c-0.1-0.5-0.2-1-0.3-1.6
		c-0.1-0.6-0.3-1.3-0.6-2.1c0-0.2-0.1-0.3-0.1-0.4c-0.1-0.1-0.1-0.2-0.1-0.4c-0.5-1.6-1.2-3.2-2.1-4.9c-0.9-1.7-2-2.8-3.6-3.2
		c-1.2-0.4-2.3-0.4-3.4,0c-1.1,0.4-2,0.9-2.8,1.6c-0.8,0.7-1.5,1.5-2.1,2.4c-0.6,0.9-1,1.8-1.2,2.7c-0.2,0.9-0.2,1.8,0,2.5
		c0.2,0.7,0.4,1.5,0.5,2.5s0.3,1.8,0.5,2.5c0.2,0.7,0.3,1.3,0.4,1.9c0.1,0.6,0.2,1.3,0.3,1.9c0.1,0.7,0.1,1.5,0.1,2.5
		c0,1.5,0.2,2.8,0.6,3.8c0.4,1.1,0.9,2.3,1.5,3.7c0.3,0.7,0.8,1.4,1.4,2c0.6,0.6,1.2,1.2,1.7,1.7c0.5,0.5,1.1,0.7,1.8,0.8
		c0.7,0.1,1,0.5,0.8,1.1c-0.2,0.9-0.9,1.1-2.1,0.7c-1.9-0.6-3.8-1.3-5.7-2c-1.9-0.8-3.9-1.4-5.8-1.9c-0.9-0.3-1.7-0.4-2.4-0.5
		c-0.7-0.1-1.4-0.2-2.2-0.4c-0.3-0.1-0.5-0.1-0.8-0.2c-0.3,0-0.5-0.1-0.7-0.1c-0.8-0.2-1.1-0.6-1-1.2c0.1-0.5,0.4-0.8,0.8-1
		c0.4-0.2,0.9-0.3,1.4-0.3c0.5-0.1,1-0.2,1.4-0.3c0.4-0.1,0.7-0.5,0.9-1c0.2-0.9,0.1-1.7-0.2-2.5c-0.3-0.8-0.6-1.7-0.7-2.6
		c-0.3-1.3-0.6-2.4-0.7-3.4c-0.1-0.9-0.3-1.8-0.4-2.6c-0.1-0.8-0.2-1.7-0.3-2.5c-0.1-0.8-0.2-1.8-0.5-3.1c-0.3-1.6-0.7-2.9-1.2-3.9
		c-0.5-1-1-2.2-1.4-3.8c-0.2-0.8-0.4-1.7-0.6-2.5c-0.1-0.9-0.4-1.7-0.6-2.5c-0.3-0.8-0.7-1.5-1.2-2c-0.5-0.6-1.2-0.9-2-1.1
		c-1.1-0.2-2.1-0.1-3,0.3c-0.8,0.5-1.5,1.1-2.1,2c-0.6,0.8-1,1.8-1.4,2.9c-0.3,1.1-0.6,2.2-0.8,3.3c-0.2,1.2-0.3,2.2-0.4,3.1
		c0,0.9-0.2,1.9-0.3,3c-0.1,0.7-0.2,1.3-0.3,1.6c-0.1,0.4-0.2,0.9-0.3,1.6c-0.1,0.4-0.2,0.8-0.3,1.4c-0.2,0.5-0.3,1-0.3,1.4
		c-0.3,1.8-0.3,3.6,0.1,5.4c0.4,1.8,0.8,3.1,1.2,3.7c0.3,0.4,0.6,0.8,1,1c0.4,0.2,0.7,0.4,1,0.6c0.3,0.2,0.5,0.3,0.7,0.5
		c0.2,0.2,0.3,0.4,0.2,0.8c-0.1,0.4-0.3,0.7-0.7,0.7c-0.4,0-0.9,0-1.6-0.2c-1.8-0.4-3.6-0.9-5.1-1.4c-1.6-0.5-3.3-1-5.2-1.3
		c-0.9-0.2-1.8-0.3-2.8-0.4c-1-0.1-1.9-0.2-2.8-0.4c-0.4-0.1-0.9-0.1-1.4-0.1c-0.5,0-0.9,0-1.2,0c-0.6-0.1-0.8-0.4-0.8-0.8
		c0.1-0.6,0.4-1,0.9-1.2c0.5-0.2,1-0.4,1.5-0.5c1.2-0.4,2.3-0.6,3.2-0.7c0.9-0.1,1.6-0.7,2.1-1.8c0.1-0.1,0.2-0.5,0.3-1.1
		c0.1-0.4,0.1-0.8,0.2-1.2c0-0.2,0.1-0.4,0.1-0.7c0.2-1,0.4-2.1,0.6-3.1c0.1-0.4,0.1-0.7,0.2-0.9c0.1-0.3,0.1-0.5,0.2-0.7
		c0.1-0.7,0.1-1.3,0.2-1.8c0-0.5,0.1-1.3,0.2-2.3c0.2-1,0.3-2,0.4-3c0.1-1,0.2-2,0.4-3c0.1-0.7,0.2-1.5,0.3-2.3s0-1.5-0.1-2.2
		c-0.2-0.7-0.5-1.2-1-1.7c-0.5-0.5-1.2-0.8-2.2-0.9c-0.2,0-0.5-0.1-0.7-0.1c-0.4,0-0.8,0-1.2,0.1c-0.4,0-0.8,0-1.2,0
		c-0.3,0-0.6-0.2-0.8-0.6c-0.2-0.3-0.3-0.5-0.3-0.6c0.1-0.7,0.6-1.2,1.5-1.5c0.9-0.3,1.8-0.7,2.7-1c1.2-0.4,2.3-0.6,3.5-0.7
		c1.2,0,2.3-0.4,3.4-1c1-0.7,2-1.3,3.2-1.8c1.2-0.5,2.2-0.7,3-0.6c0.3,0.1,0.5,0.1,0.7,0.2c0.7,0.6,1,1.2,0.9,1.7
		c0,0.1-0.1,0.3-0.2,0.5c-0.1,0.2-0.1,0.5-0.2,0.9c-0.1,0.4-0.1,0.8-0.2,1.2c0,0.3,0,0.6,0.2,1c0.2,0.4,0.4,0.6,0.5,0.5
		c1.5-0.9,3.1-1.6,4.8-2.2c1.7-0.5,3.4-0.6,5-0.3c2,0.5,3.7,1.6,5.2,3.4c1.4,1.8,2.2,3.8,2.4,5.8c0.1,0.5,0.4,1.1,0.8,1.7
		c0.4,0.6,0.9,1,1.5,1.2c0.2,0.1,0.6-0.2,1.1-0.7c0.5-0.6,1.2-1.2,2.1-1.9c0.9-0.7,1.9-1.4,3.1-2.1c1.2-0.7,2.6-1.1,4.2-1.3
		c0.2,0,0.8,0.1,1.6,0.2c0.8,0.1,1.7,0.3,2.6,0.6c0.9,0.2,1.8,0.5,2.5,0.7c0.8,0.2,1.3,0.3,1.5,0.4c1.4,0.4,2.5,1.1,3.3,2.1
		c0.8,1,1.5,2.1,2,3.3c0.5,1.2,1,2.5,1.4,3.9c0.4,1.4,0.8,2.7,1.2,4.1c0.4,1.3,0.8,2.5,1,3.5c0.3,1,0.5,2,0.7,3c0.2,1,0.5,2,0.7,3
		c0.3,1,0.6,2.2,1,3.5c0.5,1.9,1,3.6,1.6,5c0.5,1.4,1.2,3,2,4.9c0.2,0.7,0.4,1.6,0.5,2.5c0.1,1,0.4,1.7,0.8,2.3
		c0.7,1.2,1.4,2,2.1,2.4c0.7,0.4,1.5,1.1,2.5,2c0.8,0.8,1.5,1.4,2.1,1.9C368.7,103.3,368.8,104.1,368.4,105"/>
	<path class="st0" d="M409.8,96.2c0.6-1.3,0.7-2.7,0.4-4c-0.4-1.4-1-2.7-1.9-3.9c-0.9-1.2-2.1-2.4-3.4-3.4c-1.3-1-2.6-1.8-3.9-2.5
		c-1.3-0.6-2.7-1.1-4.3-1.4c-1.5-0.3-3-0.3-4.4-0.2c-1.4,0.1-2.6,0.4-3.6,0.9c-1,0.5-1.7,1.2-2,2c-0.3,0.8-0.4,1.4-0.3,1.9
		c0.1,0.5,0.3,0.9,0.8,1.3c0.5,0.4,1.2,0.9,2.1,1.4c0.9,0.5,2.1,1.1,3.6,1.8c4.2,2,8.4,4.1,12.5,6.3c0.8,0.4,1.6,0.7,2.6,0.8
		C408.8,97.3,409.5,97,409.8,96.2 M414,118.3c-0.6,1.1-1.4,1.8-2.6,2.1c-3.2,0.8-6.7,0.9-10.4,0.4c-3.8-0.5-7.5-1.7-11.3-3.6
		c-3.3-1.7-6.3-3.6-8.9-5.7c-2.6-2.1-4.7-4.4-6.3-6.9c-1.6-2.5-2.6-5.3-3.1-8.2c-0.5-3-0.1-6.1,1.1-9.5c0.9-2.7,2.4-4.9,4.5-6.7
		c2.1-1.8,4.6-3.1,7.5-3.8c2.9-0.7,6.1-0.8,9.5-0.4c3.4,0.4,7,1.6,10.7,3.4c4.5,2.3,7.8,5.1,9.9,8.4c2,3.3,3.3,7,3.8,11.2
		c0.1,1,0.1,2-0.1,3.1c-0.2,1.1-0.5,2.1-1,3c-0.2,0.5-0.5,0.8-1,1.2c-0.4,0.3-0.9,0.3-1.4,0c-4.8-2.7-9.6-5.4-14.4-7.9
		c-2.6-1.4-5.2-2.7-7.9-4c-0.8-0.4-1.7-0.9-2.5-1.4c-0.8-0.5-1.7-1-2.5-1.4c-0.4-0.2-1-0.4-2.1-0.7c-1-0.3-1.7-0.3-2-0.1
		c-0.2,0.2-0.5,0.6-0.9,1.1c-0.4,0.5-0.7,1.1-1,1.9c-0.5,1.2-0.7,2.5-0.8,3.9c0,1.6,0.3,3.3,0.8,4.9c0.5,1.7,1,2.9,1.6,3.9
		c0.7,1,1.8,2.2,3.3,3.7c1.5,1.5,3.4,2.8,5.8,4.1c2.7,1.4,5.5,2.2,8.2,2.4c2.8,0.2,5.4-0.1,7.8-0.9c0.8-0.3,1.6-0.6,2.3-1
		c0.7-0.4,1.5-0.3,2.3,0.1c0.6,0.4,1,0.9,1.2,1.5C414.3,117.1,414.3,117.7,414,118.3"/>
	<path class="st0" d="M428.5,134.3c-0.5,0.9-1.4,1.5-2.8,1.8c-1.3,0.3-2.9-0.1-4.6-1.2c-0.6-0.4-1.2-0.8-1.7-1.3
		c-0.6-0.5-1.1-1.1-1.4-1.7c-0.4-0.6-0.6-1.3-0.7-2c-0.1-0.7,0.1-1.5,0.5-2.4c0.5-0.9,1.4-1.5,2.9-1.8c1.5-0.3,3.1,0.1,4.8,1.2
		c1.8,1.1,2.8,2.5,3.2,3.9C429.1,132.2,429,133.4,428.5,134.3 M457.5,84c-0.8,1.4-1.6,2.5-2.3,3.4c-0.8,0.8-1.6,2-2.3,3.4
		c-0.6,1-1.2,1.9-1.9,2.7c-0.7,0.8-1.3,1.7-1.9,2.7c-2.7,3.7-5.4,7.5-8.1,11.2c-0.4,0.8-1.1,1.8-2,3.1c-0.9,1.3-1.6,2.4-2,3.1
		c-0.8,1.5-1.6,2.7-2.2,3.5c-0.6,0.8-1.5,1.8-2.5,3.1c-0.6,0.7-1.1,1.4-1.5,2.1c-0.5,0.7-1.1,0.8-1.8,0.3c-0.6-0.4-1-0.8-1.1-1.3
		c-0.1-0.5-0.1-1.1,0.1-1.7c0.2-0.6,0.4-1.3,0.7-2c0.3-0.7,0.6-1.3,0.9-2c0.3-0.9,0.6-1.7,0.8-2.2c0.2-0.6,0.4-1.1,0.6-1.6
		c0.2-0.5,0.4-1,0.6-1.6c0.2-0.6,0.5-1.4,1-2.3c0.4-0.9,0.8-1.8,1.3-2.8c0.5-1,0.9-1.9,1.4-2.7c0.5-1.1,0.9-2.1,1.3-3.2
		c0.3-0.9,0.6-1.8,1-2.7c0.4-0.9,0.7-1.5,0.9-2c0.5-1.1,1-2.2,1.3-3.1c0.4-0.9,0.8-1.9,1.3-3.1c0.6-1.5,1-2.8,1.4-4
		c0.4-1.2,0.7-2.4,1-3.6c0.3-1.1,0.6-2.3,1-3.5c0.4-1.2,0.9-2.5,1.6-3.8c0.5-0.9,1.1-1.8,1.8-2.5c0.8-0.8,1.6-1.4,2.5-1.9
		c0.9-0.5,1.9-0.7,2.9-0.7c1.1,0,2.1,0.4,3.2,1c1.4,0.9,2.3,1.9,2.9,3.1c0.6,1.2,0.8,2.5,0.8,3.8c0,1.3-0.3,2.7-0.8,4
		C458.7,81.6,458.1,82.8,457.5,84"/>
</g>
</svg>
