<?xml version="1.0" encoding="utf-8"?>
<!-- Generator: Adobe Illustrator 25.4.1, SVG Export Plug-In . SVG Version: 6.00 Build 0)  -->
<svg version="1.1" id="Layer_1" xmlns="http://www.w3.org/2000/svg" xmlns:xlink="http://www.w3.org/1999/xlink" x="0px" y="0px"
	 viewBox="0 0 712.7 114.4" style="enable-background:new 0 0 712.7 114.4;" xml:space="preserve">
<style type="text/css">
	.st0{fill:#fff;}
</style>
<g>
	<g>
		<path class="st0" d="M388.1,42.6c-0.4,0.4-1.9,1.7-4.3,4.4c1.2-0.2,2.6-0.3,4-0.5c0-0.9,0.1-1.5,0.1-1.5
			C387.9,44.2,388,43.3,388.1,42.6 M365.7,57.4c0.1,0,0.3,0,0.3,0c5-0.9,10-5.2,12.9-8.1c-3.1,0.6-4.9,1-4.9,1
			c-0.2,0.1-0.4,0.1-0.6,0.1c-0.2,0-0.4-0.1-0.5-0.1l-0.2-0.4c0.1-0.4,0.2-0.5,0.4-0.7c0.2-0.1,0.4-0.2,0.6-0.3
			c0.4-0.2,0.8-0.3,0.8-0.3s2.5-0.6,6.1-1.2c0.5-0.6,0.7-0.9,0.7-0.9c1.1-1.4,2.7-3.1,4-4.5c1.3-1.3,2.3-2.3,2.3-2.3
			c0,0,0.1-0.1,0.2-0.2c0.2-0.1,0.4-0.2,0.8-0.3c0.2,0,0.2,0,0.3-0.2c0.2-0.8,0.7-2.2,0.7-2.2c0-0.2,0.2-0.5,0.6-0.6
			c0.3-0.1,0.5-0.1,0.7-0.1c0.3,0,0.6,0,0.9,0.2c0.2,0.1,0.3,0.2,0.4,0.3c0.1,0.1,0.2,0.2,0.1,0.4l-0.1,0.2c0,0.1-0.6,1.5-1.1,3.8
			c-0.3,1.4-0.5,3.2-0.6,5.2c0.5-0.1,1.1-0.1,1.7-0.1h0.2c0.3,0,1.1,0.1,1.3,0.8l0,0.2c0,0.3-0.3,0.5-0.8,0.5
			c-0.9,0-1.7,0.1-1.7,0.1c-0.3,0-0.6,0-0.8,0.1l0,0.3c0,0.2-0.1,9.7,1.3,10.5c0.2,0.2,0.4,0.4,0.3,0.6c0,0.1-0.1,0.2-0.3,0.3
			c-0.2,0.1-0.5,0.2-1,0.2c-0.1,0-0.3,0.1-0.6,0.1c-0.4,0-1-0.1-1.2-0.5c-1.4-2.2-1.3-7.9-1.1-11.4c-2,0.2-3.9,0.4-5.5,0.7l-1.6,1.6
			c-4.8,4.7-8.6,6.5-8.7,6.5c-4.3,2.2-8.7,2.7-8.7,2.7c-0.2,0-0.3,0-0.5,0c-0.3,0-0.4-0.1-0.4-0.1c-0.2-0.1-0.4-0.3-0.4-0.5l0-0.3
			c0.1-0.7,0.8-1.4,1.3-2c0.5-0.6,1-1,1-1c1-0.9,1.9-1.5,1.9-1.5c2.3-1.8,4.5-2.5,4.7-2.6c0.2-0.1,0.4-0.1,0.6-0.2
			c0.2,0,0.5,0,0.6,0c1.2,0.1,1.5,0.5,1.5,0.9c-0.1,0.3-0.3,0.4-0.4,0.4c-0.1,0-0.3,0.1-0.4,0.1c-2.5,0.7-4.2,1.9-5.4,2.8
			c-0.6,0.5-1,0.9-1.3,1.2c-0.3,0.3-0.4,0.5-0.4,0.5L365.7,57.4z"/>
		<path class="st0" d="M409.8,44.2c0.1,0.2,0.2,0.3,0.4,0.5c0.4,0.3,1.2,0.8,2.9,1.2c0,0,4,1.1,10,2.4c0,0,1.3,0.3,2.5,0.8
			c0.6,0.2,1.3,0.5,1.7,0.9c0.4,0.3,0.8,0.8,0.7,1.3c-0.1,0.6-1,2.5-7.7,4.9c0,0-7.8,3.2-16.8,3.7l-1,0.1c-0.6,0.1-0.9,0.1-1.2,0.1
			c-0.4,0-0.5,0-0.5,0c-0.8-0.1-0.9-0.7-0.8-1c0-0.1,0.1-0.2,0.1-0.3c1.5-2,4.9-3.6,7.9-4.7c3-1.1,5.6-1.8,5.6-1.8
			c1.5-0.3,2.3-0.3,2.3-0.3c0.8,0,1.2,0.1,1.5,0.2c0.2,0.1,0.3,0.1,0.3,0.2c0.3,0.2,0.5,0.4,0.4,0.6c0,0.2-0.2,0.3-0.2,0.3
			c-0.1,0-0.2,0.1-0.3,0.1c-0.2,0-0.3,0-0.3,0c-3.7,0.6-6.8,1.6-9,2.5c-2.2,0.9-3.5,1.7-3.5,1.7c-0.9,0.5-1,0.8-1,0.8
			c0.1,0,0.3,0,0.5,0c0.3,0,0.6,0,0.6,0c4.7-0.2,8.7-1.2,11.5-2.2c2.8-1,4.4-1.9,4.4-1.9c3.4-1.5,3.8-2.4,3.9-2.7
			c0.1-0.8-3.9-1.8-4.2-1.9c-5.8-1.4-9.9-2.6-9.9-2.6c-3.9-1-4.1-2.3-4-2.5l0-0.2c0.1-0.6,0.8-1.3,1.4-1.7c0.6-0.5,1.2-0.8,1.2-0.8
			c2.8-1.8,9.5-5.1,15.1-5.9c0,0,0.2,0,0.4,0c0.3,0,0.7,0,1.2,0.2c0.2,0.1,0.4,0.2,0.5,0.3c0.2,0.2,0.4,0.7,0.3,1.3l-0.1,0.3
			c-0.3,1.5-1.4,3.2-2.4,4.4c-1,1.2-2,2.1-2,2.1c-0.4,0.4-0.9,0.5-1.1,0.5l-0.2,0c-1-0.1-1.1-0.9-1-1.4c0.1-0.3,0.2-0.6,0.3-0.8
			c0.1-0.2,0.2-0.4,0.2-0.4c0.4-0.7,1.1-1.3,1.7-1.7c0.5-0.4,0.9-0.6,1.1-0.7c0.5-0.7,0.7-1.2,0.8-1.5c0.1-0.3,0-0.4,0-0.4
			c-0.3-0.1-0.4-0.1-0.6-0.1c-0.4,0-1,0.1-2.3,0.5c0,0-6.4,1.7-10.4,4.7C410.7,43.1,409.9,43.7,409.8,44.2L409.8,44.2z"/>
		<path class="st0" d="M436,42.6c1.5-0.2,3.3-0.3,4.1-0.4l0.1,0c0.1,0,0.2,0,0.3,0c0.1,0,0.2,0,0.3,0.1c0.1,0.1,0.2,0.2,0.2,0.4
			c-0.1,0.2-0.1,0.3-0.2,0.4c-0.1,0.2-0.3,0.4-0.7,0.6c-1,0.5-3.1,0.8-5,0.9c-0.2,0.4-0.3,0.9-0.5,1.5c-0.2,0.6-0.3,1.3-0.6,2
			c0,0-1,2.4-1.5,4.5c0,0-0.3,1-0.6,2.2c-0.3,1.4-0.4,2.8,0,3.3c0.1,0.1,0.2,0.1,0.3,0.1c0.1,0,0.2,0,0.3-0.2
			c0.2-0.2,0.3-0.3,0.4-0.4c0.2-0.2,0.5-0.4,0.8-0.5l0.2,0c0.1,0,0.2,0,0.3,0.1c0.1,0,0.2,0.1,0.3,0.2c0.1,0.1,0.2,0.2,0.1,0.4
			c-0.3,1.6-1,2.5-1.6,2.9c-0.3,0.2-0.6,0.3-0.8,0.3c-0.1,0-0.2,0-0.3,0c-0.2,0.1-0.4,0.1-0.6,0.1c-0.4,0-0.7-0.1-0.9-0.2
			c-0.2-0.1-0.4-0.2-0.4-0.2c-1.3-0.8-1.1-3.2-0.7-5c0.2-1,0.6-2,0.8-3c0.5-2.7,1.4-5.6,2.2-7.9c-0.5,0-0.8,0.1-1.1,0.1
			c-1.4,0.1-1.9,0.2-2.5,0.3l-0.2,0l-0.1,0c-0.5,0-0.6-0.3-0.6-0.5l0-0.2l0.1-0.1c0.1-0.1,0.2-0.2,0.3-0.3c0.3-0.2,0.6-0.5,1.1-0.7
			c0,0,0.7-0.2,3.5-0.4c0.8-2.1,1.5-3.6,1.5-3.6l0.1-0.1c0,0,0.1-0.1,0.2-0.1c0.1-0.1,0.4-0.1,0.7-0.1c0.3,0,0.5,0,0.9,0.1l0.2,0.1
			c0.1,0,0.2,0.1,0.4,0.1c0.1,0,0.2,0,0.2,0.1c0.2,0.1,0.3,0.3,0.2,0.5c0,0.1-0.1,0.3-0.2,0.5C437.2,40.4,436.7,41.1,436,42.6"/>
		<path class="st0" d="M435.7,49.8c0.2-1,0.5-1.6,0.6-1.8c0.1-0.3,0.4-0.5,1-0.5l0.1,0c0.1,0,0.3,0,0.5,0.1c0.1,0,0.2,0.1,0.3,0.1
			c0.1,0.1,0.2,0.1,0.2,0.2c0.1,0.1,0.1,0.2,0.1,0.2c0,0.1,0,0.2,0,0.3c0,0.2-0.1,0.5-0.1,0.8l-0.2,1.1c-0.2,0.9-0.4,2-0.3,2.9
			c0.1-0.1,0.2-0.6,0.5-1.8c0,0,0.2-1.1,0.8-2.5c0.5-1.4,1.4-3,2.5-4.1c0,0,0.1-0.1,0.4-0.2c0.2-0.1,0.5-0.2,0.9-0.2
			c0,0,0.8,0.1,1.6,0.4c0,0,1.6,0.6,2.9,2.4c0,0,0.1,0.1,0.1,0.2c0,0.1,0,0.2,0,0.2c0,0.1-0.1,0.2-0.2,0.3c-0.1,0-0.2,0.1-0.2,0.1
			c-0.1,0-0.3,0-0.4,0h-0.2c-2.1-0.9-3.1-1.1-3.1-1.1c-0.1-0.1-0.3-0.1-0.3-0.1l-0.1,0.1c-0.9,1.9-1.7,4.1-1.7,4.1
			c-1.1,2.6-1.8,4.3-1.8,4.3c-0.6,1.5-0.9,1.9-1.1,2c-0.3,0.4-0.6,0.5-0.9,0.5c-0.1,0-0.2,0-0.3-0.1c-0.5,0-0.7-0.4-0.8-0.7
			c-0.1-0.1-0.1-0.3-0.1-0.4l0-0.2C435.4,53.5,435.4,51.2,435.7,49.8"/>
		<path class="st0" d="M452.5,48.9c-0.1-0.1-0.2-0.2-0.2-0.2l-0.2,0c-0.4,0-1.2,0.3-1.2,0.3c-0.2,0.1-0.4,0.2-0.5,0.2l-0.1,0
			l-0.4,0.4c-0.3,0.3-0.6,0.7-0.9,1.1c-0.6,0.8-1.1,1.8-1.3,2.8c-0.2,0.8,0,1.6,0.7,2.1c0.2,0,0.3,0.1,0.5,0.1
			c0.3,0,0.8-0.1,1.3-0.4c0.8-0.5,1.4-1.3,1.7-2c0.3-0.6,0.5-1.1,0.5-1.1c0.2-0.5,0.2-0.9,0.3-1.2C452.8,49.8,452.7,49.2,452.5,48.9
			 M447.7,49.2c-0.2-0.2-0.3-0.4-0.3-0.7c0.1-0.3,0.3-0.5,0.6-0.8c0,0,0.5-0.3,1.3-0.7c0.8-0.3,1.9-0.7,3.1-0.7h0.2
			c0.3,0,1,0,1.6,0.3c0.6,0.3,1.1,0.8,1.2,1.8c0,0,0,1,0,1.5c0,0-0.1,0.6-0.2,1.4c-0.3,1.5-1,3.9-2.9,5.2c-1.3,0.8-2.1,0.9-2.3,0.9
			c-0.5,0.1-0.9,0.2-1.2,0.2c-0.3,0-0.5,0-0.7-0.1c-0.2,0-0.3-0.1-0.3-0.1c-2.7-1.1-2.6-3.2-2.4-4.1l0.1-0.4
			c0.2-1.1,0.9-2.1,1.5-2.8C447.1,49.7,447.5,49.4,447.7,49.2"/>
		<path class="st0" d="M458.2,54.7l0.3-0.1c0.2-0.2,1.4-1.4,3-3.6c0,0,0.9-1.1,1.9-2.3c1-1.1,2.2-2.4,2.9-2.6c0,0,0.2,0,0.5,0
			c0.3,0,0.7,0,1.1,0.2c0.2,0.1,0.8,0.6,0.3,2.9c-0.1,0.5-0.3,1.1-0.5,1.8c0,0-0.2,0.5-0.3,1.2c-0.2,1.1-0.4,2.4-0.1,2.8
			c0.1,0,0.1,0.1,0.2,0.1c0.1,0,0.2,0,0.3,0l0.1,0c0.1,0,0.2-0.1,0.3-0.1c0.1,0,0.3,0,0.4,0.1c0,0,0.1,0.1,0.1,0.2
			c0,0.1,0.1,0.2,0,0.3c-0.1,0.3-0.4,0.7-1.1,1.2c-0.8,0.6-1.7,0.6-2.1,0.6h-0.2c-0.7-0.1-1-0.7-1.1-1.3c-0.1-0.6,0-1.3,0.1-1.9
			c0.1-0.6,0.3-1,0.3-1c0.3-1.2,0.5-2.1,0.7-2.8c0.2-1.2,0.2-1.5,0.2-1.6c-0.8,0.5-4.6,5.4-4.7,5.5c-1.3,1.6-2.6,2.9-2.6,2.9
			c-0.3,0.3-0.7,0.4-1,0.4c-0.2,0-0.4,0-0.4,0c-0.8-0.1-1.1-0.7-1.2-1.3c0-0.3-0.1-0.5,0-0.7c0-0.2,0-0.3,0-0.3c0-0.4,0-0.8,0.2-1.4
			c0.3-1.5,1-3.3,1-3.3c0.8-2.8,2.3-4.9,2.3-4.9c0.1-0.1,0.1-0.1,0.3-0.2c0.1,0,0.3-0.1,0.6-0.1c0.3,0,0.6,0.1,1.1,0.2
			c0.1,0,0.3,0.1,0.3,0.3c0,0.1,0,0.3,0,0.5c0,0.2-0.1,0.4-0.2,0.6l-0.4,0.8c-0.3,0.6-0.7,1.5-1.2,2.8c0,0-1,2.1-1.3,3.6L458.2,54.7
			z"/>
		<path class="st0" d="M477.8,56.4c-0.4,0.4-0.7,0.7-0.8,0.9c-0.2,0.2-0.3,0.4-0.3,0.4c-1,1.6-1.6,3-1.8,4.2c-0.3,1.5-0.2,2.6,0,3.4
			c0.2,0.8,0.5,1.3,0.5,1.3c0.2,0.4,0.4,0.6,0.6,0.7c0.1,0.1,0.1,0.1,0.2,0.1c0.3-0.1,0.5-0.4,0.7-0.8c0.2-0.5,0.3-1,0.4-1.1
			c0.3-1.4,0.9-3.2,1.4-4.7c0.5-1.5,1-2.6,1-2.6c0.4-1.3,0.9-2.6,1.2-3.7C479.5,54.9,478.5,55.7,477.8,56.4 M472.4,54.3
			c0,0,0.1,0,0.4-0.2c0.3-0.1,0.8-0.4,1.4-0.7c0,0,0.5-0.3,1.2-0.9c0.8-0.6,1.9-1.5,3.2-2.8c0.2-0.2,0.3-0.3,0.3-0.4
			c0.1-0.4-0.1-0.5-0.2-0.5c-0.9,0-2.8,1.7-2.8,1.7c-1.6,1.3-2.5,2.3-3,2.9C472.6,53.8,472.5,54.1,472.4,54.3L472.4,54.3z
			 M480.8,47.6c0.1-0.1,0.9-0.7,1.3-1.1c0.2-0.1,0.3-0.2,0.4-0.3c0.2-0.1,0.6-0.2,1.1-0.2c0,0,0.1,0,0.2,0c0.1,0,0.3,0.1,0.4,0.2
			c0.3,0.2,0.6,0.6,0.6,1.3c0,0,0,1-0.3,2.9c-0.1,0.4-0.2,0.8-0.3,1.2l0.3,0c0,0,0.4,0,0.9,0c0.5,0,1.2,0,1.7,0.1
			c0.3,0.1,0.5,0.2,0.7,0.3c0.2,0.2,0.3,0.4,0.3,0.7c-0.1,0.3-0.3,0.4-0.4,0.4c-0.1,0-0.3,0.1-0.4,0.1h-0.6c-1.1,0-2.1,0.1-3,0.3
			c-0.3,1.2-0.8,2.6-1.3,4.2c0,0-0.6,1.5-1.3,3.3c-0.7,1.8-1.4,4-1.7,5.5c0,0,0,0.1-0.1,0.3c-0.1,0.2-0.2,0.5-0.3,0.8
			c-0.3,0.6-0.9,1.2-1.7,1.5l-0.3,0.1l-0.4,0.1c-0.3,0.1-0.7,0.2-1,0.2c-0.5,0-1.3-0.1-1.9-1.1c0,0-1.8-2.7-1-6.8
			c0.2-0.9,0.5-1.9,1-3c0,0,2.4-4.6,7.9-6.4c0.3-1.4,0.3-2.3,0.4-2.8c-4.5,4.4-8.5,6.6-8.5,6.6c-1.5,0.8-2.2,0.9-2.4,0.9
			c-0.5,0-0.8-0.2-0.9-0.3c-0.1-0.1-0.2-0.2-0.2-0.2c-0.3-0.3-0.3-0.6-0.2-0.7c0-0.2,0.1-0.3,0.2-0.3l0.2-0.2
			c0.2-1.2,1.6-2.9,2.9-4.2c1.3-1.4,2.5-2.4,2.5-2.4c2-1.6,3.5-1.6,3.5-1.6c0.2,0,0.6,0,0.9,0.1C480.1,47.1,480.5,47.3,480.8,47.6"
			/>
		<path class="st0" d="M515.5,41.5c0-0.1,0.1-0.1,0.1-0.3c0.1-0.3,0.2-0.9,0-1.5c-0.2-0.6-0.6-1.1-1.7-1.2c0,0-0.5,0-1.4,0.2
			c-0.9,0.3-2.1,0.8-3.6,1.9c0,0-0.3,0.3-0.9,0.8c-0.6,0.5-1.3,1.2-2.1,2.2c-1.6,1.9-3.3,4.5-3.9,7.6c-0.1,0.6-0.2,1.2-0.3,1.8
			c0,0,0.2,4.3,4.5,4.5c0,0,0.2,0,0.6,0c1,0,3-0.3,5.1-2.2c0.1-0.1,0.6-0.8,1.3-1.4c0.7-0.8,1.7-1.6,2.5-1.9
			c0.2-0.1,0.4-0.1,0.5-0.1s0.3,0,0.5,0.2c0.3,0.3,0.3,0.5,0.2,0.8c-0.1,0.4-0.3,1.1-1.1,2c-3,3.9-7.7,4.3-9.5,4.3
			c-0.4,0-0.7,0-0.7,0c-7.1-0.3-7-5.7-6.5-8.6c0.2-1.2,0.6-2.1,0.6-2.1c0,0,1-2.4,3-5.1c2.1-2.7,5.2-5.6,9.6-6.5
			c0,0,0.7-0.2,1.6-0.2c0.5,0,1.2,0.1,1.8,0.3c0.1,0,0.2,0.1,0.4,0.2c0.3,0.1,0.6,0.4,0.9,0.8c0.6,0.7,1.2,2,0.8,4l-0.1,0.3
			c0,0-0.4,1.2-0.9,2.4c-0.6,1.1-1.4,2.5-2.5,2.6c0,0-0.2,0-0.5-0.1c-0.3-0.1-0.6-0.2-0.9-0.5c0,0-0.1-0.1-0.1-0.2
			c-0.1-0.2-0.2-0.4-0.1-0.7c0-0.1,0-0.5,0.2-1.1C513.4,43.8,514,42.1,515.5,41.5L515.5,41.5z"/>
		<path class="st0" d="M525.5,49.9c-0.1-0.1-0.2-0.2-0.2-0.2l-0.2,0c-0.4,0-1.2,0.3-1.2,0.3c-0.2,0.1-0.4,0.2-0.5,0.2l-0.1,0
			l-0.4,0.4c-0.3,0.3-0.6,0.7-0.9,1.1c-0.6,0.8-1.1,1.8-1.3,2.8c-0.2,0.8,0,1.6,0.7,2.1c0.2,0,0.3,0.1,0.5,0.1
			c0.3,0,0.8-0.1,1.3-0.4c0.8-0.5,1.4-1.3,1.7-2c0.3-0.6,0.5-1.1,0.5-1.1c0.2-0.5,0.2-0.9,0.3-1.2C525.8,50.7,525.6,50.1,525.5,49.9
			 M520.7,50.1c-0.2-0.2-0.3-0.4-0.3-0.7c0.1-0.3,0.3-0.5,0.7-0.8c0,0,0.5-0.3,1.3-0.7c0.8-0.3,1.9-0.7,3.1-0.7h0.2
			c0.3,0,1,0,1.6,0.3c0.6,0.3,1.1,0.8,1.2,1.8c0,0,0,1,0,1.5c0,0-0.1,0.6-0.2,1.4c-0.3,1.5-1,3.9-2.9,5.2c-1.3,0.8-2.1,0.9-2.3,0.9
			c-0.5,0.1-0.9,0.2-1.2,0.2c-0.3,0-0.5,0-0.7-0.1c-0.2,0-0.3-0.1-0.3-0.1c-2.7-1.1-2.6-3.2-2.4-4.1l0.1-0.4
			c0.2-1.1,0.9-2.1,1.5-2.8C520.1,50.6,520.4,50.3,520.7,50.1"/>
		<path class="st0" d="M539.5,55.3c0.1,0,0.2-0.1,0.3-0.3c0,0,1.7-2.4,4.2-5.3c0,0,0.4-0.6,1-1.2c0.6-0.7,1.3-1.5,1.9-2
			c0.1-0.1,0.6-0.4,2.3-0.4c0.1,0,0.3,0,0.4,0.1c0.1,0,0.3,0.2,0.3,0.5c0,0.1,0,0.2-0.2,0.3c-0.1,0.1-0.4,0.5-0.8,1.3
			c-0.5,0.9-1.1,2.2-1.4,4l0,0.2c-0.1,0.4-0.2,1.4-0.2,2.3c0,1,0.2,1.8,0.7,2c0,0,0.1,0,0.2,0.1c0.1,0.1,0.3,0.2,0.2,0.5l-0.1,0.2
			c-0.4,0.4-1.1,0.7-2,0.7c-0.2,0-0.3-0.1-0.5-0.1c-0.7-0.5-1-1.4-1-2.2c0-0.9,0.1-2,0.3-2.8c0.2-0.9,0.4-1.7,0.5-2
			c-1.9,2.1-3.2,3.8-4.1,5c-0.7,1.1-1.1,1.8-1.2,1.9c-0.1,0.3-0.4,0.5-0.6,0.5c-0.1,0-0.2,0.1-0.3,0.1l-0.1,0c-1,0-1.4-0.2-1.5-0.4
			c-0.9-0.8-1-2.7-0.9-4.4c0-1.2,0.2-2.4,0.3-2.9c-1.6,2.5-3.7,5.3-3.7,5.3c-1.5,2.1-2.3,2.4-2.5,2.5c-0.2,0.1-0.4,0.1-0.6,0.1
			c-0.3,0-0.5,0-0.7-0.1c-0.2,0-0.4-0.1-0.4-0.1c-0.3-0.1-0.4-0.4-0.4-0.6c0-0.2,0-0.4,0-0.6c0.2-1,0.2-2,0.4-2.9
			c0.4-1.8,0.8-3.3,0.8-3.3c0.1-0.3,0.2-0.6,0.2-0.9c0.2-1,0.1-1.5,0.1-1.5c-0.1-0.3-0.1-0.6-0.1-0.9c0-0.3,0.1-0.5,0.1-0.6l0.1-0.3
			c0.3-0.6,0.8-0.9,1.2-1c0.2-0.1,0.4-0.1,0.5-0.1c0.1,0,0.2,0,0.2,0s0.1,0,0.2,0c0.1,0,0.3,0.1,0.4,0.2c0.3,0.2,0.5,0.7,0.4,1.3
			c0,0-0.6,1.8-1.4,4.7c0,0-0.3,0.9-0.5,1.9c-0.1,0.5-0.1,1-0.2,1.4c0.1-0.1,0.3-0.1,0.4-0.3c0,0,0.5-0.6,1.3-1.7
			c0.8-1,1.9-2.5,2.9-4.2c0,0,0.4-0.6,0.9-1.2c0.5-0.6,1.1-1.3,1.5-1.6c0.2-0.1,0.3-0.1,0.5-0.1h0.2c0,0,0.3,0,0.6,0.1
			c0.3,0.1,0.7,0.2,0.9,0.6c0,0,0.1,0.1,0.1,0.2c0,0.1,0.1,0.3,0,0.6c0,0.2-0.2,0.6-0.4,0.9c0,0.1-0.3,0.9-0.5,2
			C539.6,51.7,539.4,53.4,539.5,55.3L539.5,55.3z"/>
		<path class="st0" d="M560.3,55.3c0.1,0,0.2-0.1,0.3-0.3c0,0,1.7-2.4,4.2-5.3c0,0,0.4-0.6,1-1.2c0.6-0.7,1.3-1.5,1.9-2
			c0.1-0.1,0.6-0.4,2.3-0.4c0.1,0,0.3,0,0.4,0.1c0.1,0,0.4,0.2,0.3,0.5c0,0.1,0,0.2-0.2,0.3c-0.1,0.1-0.4,0.5-0.8,1.3
			c-0.5,0.9-1.1,2.2-1.4,4l0,0.2c-0.1,0.4-0.2,1.4-0.2,2.3c0,1,0.2,1.8,0.7,2c0,0,0.1,0,0.2,0.1c0.1,0.1,0.3,0.2,0.2,0.5l-0.1,0.2
			c-0.4,0.4-1.2,0.7-2,0.7c-0.2,0-0.3-0.1-0.5-0.1c-0.7-0.5-1-1.4-1-2.2c0-0.9,0.1-2,0.3-2.8c0.2-0.9,0.4-1.7,0.5-2
			c-1.9,2.1-3.2,3.8-4.1,5c-0.7,1.1-1.1,1.8-1.2,1.9c-0.1,0.3-0.4,0.5-0.6,0.5c-0.1,0-0.2,0.1-0.3,0.1l-0.1,0c-1,0-1.4-0.2-1.5-0.4
			c-0.9-0.8-1-2.7-0.9-4.4c0.1-1.2,0.2-2.4,0.3-2.9c-1.6,2.5-3.7,5.3-3.7,5.3c-1.5,2.1-2.3,2.4-2.5,2.5c-0.2,0.1-0.4,0.1-0.6,0.1
			c-0.3,0-0.5,0-0.7-0.1c-0.2,0-0.4-0.1-0.4-0.1c-0.3-0.1-0.4-0.4-0.4-0.6c0-0.2,0-0.4,0-0.6c0.2-1,0.2-2,0.4-2.9
			c0.4-1.8,0.8-3.3,0.8-3.3c0.1-0.3,0.2-0.6,0.2-0.9c0.2-1,0.1-1.5,0.1-1.5c-0.1-0.3-0.1-0.6-0.1-0.9c0-0.3,0.1-0.5,0.1-0.6l0.1-0.3
			c0.3-0.6,0.8-0.9,1.2-1c0.2-0.1,0.4-0.1,0.5-0.1c0.1,0,0.2,0,0.2,0s0.1,0,0.2,0c0.1,0,0.3,0.1,0.4,0.2c0.3,0.2,0.5,0.7,0.4,1.3
			c0,0-0.6,1.8-1.4,4.7c0,0-0.3,0.9-0.5,1.9c-0.1,0.5-0.1,1-0.2,1.4c0.1-0.1,0.3-0.1,0.4-0.3c0,0,0.5-0.6,1.3-1.7
			c0.8-1,1.9-2.5,2.9-4.2c0,0,0.4-0.6,0.9-1.2c0.5-0.6,1.1-1.3,1.5-1.6c0.2-0.1,0.3-0.1,0.5-0.1h0.2c0,0,0.3,0,0.6,0.1
			c0.3,0.1,0.7,0.2,0.9,0.6c0,0,0.1,0.1,0.1,0.2c0,0.1,0.1,0.3,0,0.6c-0.1,0.2-0.2,0.6-0.4,0.9c0,0.1-0.3,0.9-0.5,2
			C560.4,51.7,560.2,53.4,560.3,55.3L560.3,55.3z"/>
		<path class="st0" d="M579.3,48.1c0-0.1,0-0.1,0-0.2c0.1-0.4,0.4-0.8,1.5-1.1c0,0,0.1-0.1,0.3-0.1c0.2-0.1,0.5-0.1,0.7-0.1
			c0.3,0,0.5,0.1,0.7,0.2c0,0,0.1,0.1,0.1,0.1c0.1,0.1,0.1,0.2,0.1,0.4c0,0.1-0.1,0.2-0.1,0.2l-0.1,0.2c0,0-0.3,0.5-0.7,1.4
			c-0.4,0.9-0.9,2.1-1.2,3.7l-0.2,1.1l0,0.3l0,0.8c0,0.7,0.1,1.4,0.3,1.9c0.1,0.2,0.2,0.3,0.2,0.3c0.2,0.4,0.2,0.4,0.2,0.4
			c0,0.2-0.2,0.4-0.4,0.5c-0.1,0.1-0.3,0.2-0.3,0.2c-0.3,0.2-0.7,0.2-0.9,0.2c-0.3,0-0.6-0.1-0.6-0.1c-0.4-0.1-0.7-0.4-0.8-0.8
			c-0.1-0.4-0.2-0.9-0.2-1.3c0-0.6,0-1.2,0.1-1.5c-2.3,3.1-3.9,3.4-4.3,3.4l-0.3,0c-0.9,0-1.5-0.5-1.9-1c-0.2-0.2-0.3-0.5-0.4-0.6
			c-0.1-0.2-0.1-0.3-0.1-0.3c-0.3-1.1-0.2-2.3,0-3.4c0.3-1.4,0.8-2.7,1.3-3.6c0.5-0.9,0.9-1.5,0.9-1.5c0.1-0.1,0.2-0.1,0.3-0.2
			c0.1-0.1,0.3-0.1,0.5-0.2c0,0,0.3-0.1,0.7-0.1c0.4,0,1.1,0.1,1.3,0.6l0,0.2c0,0.2-0.1,0.3-0.3,0.5l-0.2,0.2
			c-0.1,0.2-0.4,0.4-0.6,0.8c-0.5,0.8-1.2,2.1-1.8,4.2c0,0.2-0.3,2.1,0.5,2.1c0.1,0,0.6,0,1.6-1.1c0,0,0.1-0.1,0.4-0.3
			c0.2-0.2,0.5-0.6,0.9-1c0.7-0.9,1.6-2.4,2.4-4.4c0-0.1,0.1-0.3,0.1-0.5C579.1,48.6,579.2,48.3,579.3,48.1"/>
		<path class="st0" d="M585.5,55.6l0.3-0.1c0.2-0.2,1.4-1.4,3-3.6c0,0,0.9-1.1,1.9-2.3c1-1.1,2.2-2.4,2.9-2.6c0,0,0.2,0,0.5,0
			c0.3,0,0.7,0,1.1,0.2c0.2,0.1,0.8,0.6,0.3,2.9c-0.1,0.5-0.3,1.1-0.5,1.8c0,0-0.2,0.5-0.3,1.2c-0.2,1.1-0.4,2.4-0.1,2.8
			c0.1,0,0.1,0.1,0.2,0.1c0.1,0,0.2,0,0.3,0l0.1,0c0.1,0,0.2-0.1,0.3-0.1c0.1,0,0.3,0,0.4,0.1c0,0,0.1,0.1,0.2,0.2
			c0,0.1,0.1,0.2,0,0.3c-0.1,0.3-0.4,0.7-1.1,1.2c-0.8,0.6-1.7,0.6-2.1,0.6h-0.2c-0.7-0.1-1-0.7-1.1-1.3c-0.1-0.6,0-1.3,0.1-1.9
			c0.1-0.6,0.3-1,0.3-1c0.3-1.2,0.5-2.1,0.7-2.8C593,50.4,593,50,593,50c-0.8,0.5-4.6,5.4-4.7,5.5c-1.3,1.6-2.6,2.9-2.6,2.9
			c-0.3,0.3-0.7,0.4-1,0.4c-0.2,0-0.4,0-0.4,0c-0.8-0.1-1.1-0.7-1.2-1.3c0-0.3-0.1-0.5,0-0.7c0-0.2,0-0.3,0-0.3
			c0-0.4,0.1-0.8,0.2-1.3c0.3-1.5,1-3.3,1-3.3c0.8-2.8,2.3-4.9,2.3-4.9c0.1-0.1,0.1-0.1,0.3-0.2c0.1,0,0.3-0.1,0.6-0.1
			c0.3,0,0.6,0.1,1.1,0.2c0.1,0,0.3,0.1,0.3,0.3c0,0.1,0,0.3,0,0.5c0,0.2-0.1,0.4-0.2,0.6l-0.4,0.8c-0.3,0.6-0.7,1.5-1.2,2.8
			c0,0-0.3,0.5-0.5,1.2c-0.3,0.7-0.6,1.6-0.8,2.3L585.5,55.6z"/>
		<path class="st0" d="M602.7,48.9c0,0-0.2,0.2-0.3,0.3c0,0-0.3,0.6-0.7,1.4c-0.4,0.9-0.9,2-1.1,3.3c-0.2,0.9-0.3,1.8-0.1,2.6
			c0,0,0.1,0.1,0.1,0.1l0.1,0c0,0,0.1,0,0.1,0.1c0.1,0.1,0.3,0.2,0.2,0.5c0,0.1-0.1,0.3-0.3,0.4c-0.9,0.7-1.6,0.8-2,0.8
			c-0.1,0-0.2,0-0.2,0c-1,0-1-0.7-0.9-1l0-0.1c0.2-1,0.2-1.9,0.4-2.7c0.7-3.3,1.9-5.8,1.9-5.8c0.1-0.1,0.1-0.2,0.2-0.3l0-0.1
			c0,0,0,0,0-0.1c0-0.1,0.1-0.1,0.1-0.2c0.1-0.1,0.4-0.2,0.7-0.3c0,0,0.4,0,0.9,0c0.2,0,0.4,0,0.6,0l0.2,0c0.1,0,0.2,0.1,0.2,0.1
			c0.1,0.1,0.1,0.2,0.1,0.4C603.1,48.4,603,48.6,602.7,48.9 M604.6,44.6c0,0-0.1,0.1-0.2,0.1c-0.1,0.1-0.4,0.2-0.7,0.3
			c-0.1,0.1-0.6,0.3-0.8,0.5l0,0.1c0,0.1,0,0.3,0,0.5c0,0.2-0.2,0.5-0.5,0.7c-0.2,0.1-0.4,0.2-0.6,0.2c-0.3,0-0.6-0.1-0.7-0.2
			c-0.1-0.1-0.2-0.1-0.2-0.1l-0.1-0.1c-0.3-0.6-0.4-1-0.3-1.4c0.1-0.3,0.2-0.5,0.3-0.6c0.1-0.1,0.1-0.1,0.2-0.1
			c0.2-0.2,0.8-0.7,2.5-0.7c0,0,0.3,0,0.6,0.1c0.1,0,0.3,0.1,0.4,0.2c0.1,0.1,0.3,0.3,0.2,0.5L604.6,44.6L604.6,44.6z"/>
		<path class="st0" d="M611.7,43.6c1.5-0.2,3.3-0.3,4.1-0.4l0.1,0c0.1,0,0.2,0,0.3,0c0.1,0,0.2,0,0.3,0.1c0.1,0.1,0.2,0.2,0.2,0.4
			c-0.1,0.2-0.1,0.3-0.2,0.4c-0.1,0.2-0.3,0.4-0.7,0.6c-1,0.5-3.1,0.8-5,0.9c-0.2,0.4-0.3,0.9-0.5,1.5c-0.2,0.6-0.3,1.3-0.6,2
			c0,0-1,2.4-1.5,4.5c0,0-0.3,1-0.5,2.2c-0.3,1.4-0.4,2.8,0,3.3C608,59,608,59,608.1,59c0.1,0,0.2,0,0.3-0.2
			c0.2-0.2,0.3-0.3,0.4-0.4c0.2-0.2,0.5-0.4,0.8-0.5l0.2,0c0.1,0,0.2,0,0.3,0.1c0.1,0,0.2,0.1,0.3,0.2c0.1,0.1,0.2,0.2,0.1,0.4
			c-0.3,1.6-1,2.5-1.6,2.9c-0.3,0.2-0.6,0.3-0.8,0.3c-0.1,0-0.2,0-0.3,0c-0.2,0.1-0.4,0.1-0.6,0.1c-0.3,0-0.7-0.1-0.9-0.2
			c-0.2-0.1-0.4-0.2-0.4-0.2c-1.3-0.8-1.1-3.2-0.7-5c0.2-1,0.6-2,0.9-3c0.5-2.7,1.4-5.6,2.2-7.9c-0.5,0-0.8,0.1-1.1,0.1
			c-1.4,0.1-1.9,0.2-2.5,0.3l-0.2,0l-0.1,0c-0.5,0-0.6-0.3-0.6-0.5l0.1-0.2l0.1-0.1c0.1-0.1,0.2-0.2,0.3-0.3
			c0.2-0.2,0.6-0.5,1.1-0.7c0,0,0.7-0.2,3.5-0.4c0.8-2.1,1.5-3.6,1.5-3.6l0.1-0.1c0,0,0.1-0.1,0.2-0.1c0.2-0.1,0.4-0.1,0.7-0.1
			c0.3,0,0.5,0,0.9,0.1l0.2,0.1c0.1,0,0.2,0.1,0.4,0.1c0.1,0,0.2,0,0.3,0.1c0.2,0.1,0.3,0.3,0.2,0.5c0,0.1-0.1,0.3-0.2,0.5
			C612.9,41.3,612.4,42,611.7,43.6"/>
		<path class="st0" d="M621.3,56.3c-0.2,0.1-0.3,0.3-0.4,0.4c-2,2.5-2.8,4.7-3.1,6.4c-0.3,1.6-0.2,2.8,0,3.7
			c0.1,0.4,0.2,0.6,0.2,0.8c0.1,0.2,0.1,0.3,0.1,0.3c0.3,0.1,0.6,0,0.7-0.1c0.4-0.7,0.7-1.6,0.9-2.3c0.2-0.8,0.4-1.4,0.4-1.4
			c0.9-2.7,2.3-8.1,2.3-8.1l0.1-0.3C621.9,55.8,621.5,56.1,621.3,56.3 M613.4,55.3l0.2-0.1c0,0,0.7-0.3,2.4-1.6
			c1.7-1.3,4.4-3.5,8.2-7.3c0,0,0.2-0.1,0.4-0.2c0.3-0.1,0.6-0.2,1.1-0.2l0.2,0c0.1,0,0.3,0,0.4,0.1c0.3,0.1,0.7,0.3,0.7,0.8
			c0,0.2,0.1,0.7-0.1,2c-0.2,1-0.8,2.5-1.5,4.7c0,0-0.1,0.1-0.1,0.3c0.6,0.1,1.1,0.3,1.5,0.7c0.4,0.3,0.5,0.7,0.4,1
			c0,0.1-0.1,0.2-0.1,0.3c-0.1,0.2-0.2,0.2-0.3,0.3c-0.1,0-0.2,0-0.3,0c-0.1,0-0.3,0-0.4-0.1c-0.7-0.2-1.1-0.3-1.4-0.4
			c-0.6,1.7-1.2,4.3-2.1,6.9c0,0-0.4,1.5-0.8,3.1c-0.5,1.5-1,3.3-1.5,3.7c0,0-0.3,0.4-0.8,0.7c-0.5,0.3-1.2,0.7-1.9,0.7
			c-0.3,0-3.4-0.2-2.6-5.3c0,0,0.1-0.6,0.3-1.6c0.5-2.4,1.8-6.9,5-9.1c0,0,1.1-0.8,2.9-1.1c0.6-1.6,0.9-2.7,1-3.5
			c0.2-0.8,0.2-1.2,0.2-1.2c-6.4,5.7-10.4,8.3-10.4,8.3c-0.6,0.3-0.9,0.4-1,0.5c-0.1,0.1-0.3,0.2-0.4,0.2l-0.2,0.1
			c-1.4,0-1.6-0.4-1.7-0.6c-0.1-0.4,0-0.8,0.1-1.3c0.2-1.1,0.8-2.4,1.3-3.4c0.5-1,0.9-1.8,0.9-1.8c0.7-1,1.6-2.9,1.6-2.9
			c0.2-0.2,0.2-0.2,0.3-0.2c0.1-0.1,0.4-0.1,0.6-0.1l0.2,0c0.1,0,0.4,0.1,0.8,0.3c0.2,0.1,0.4,0.2,0.5,0.3c0.1,0.1,0.3,0.3,0.4,0.5
			c0,0.1,0.1,0.2,0,0.3c0,0.2-0.2,0.4-0.5,0.5l-0.2,0.1c-0.1,0.1-0.3,0.1-0.4,0.3c-0.4,0.3-0.8,0.8-1.2,1.5c0,0-1.4,2.1-1.7,3.5
			C613.5,55,613.4,55.1,613.4,55.3"/>
		<path class="st0" d="M645.2,45.1c0.1,0.2,0.2,0.3,0.4,0.5c0.4,0.3,1.2,0.8,2.9,1.2c0,0,4,1.1,10,2.4c0,0,1.3,0.3,2.5,0.8
			c0.6,0.2,1.3,0.5,1.7,0.9c0.4,0.3,0.8,0.8,0.7,1.3c-0.1,0.6-1,2.5-7.7,4.9c0,0-7.8,3.2-16.8,3.7l-1,0.1c-0.6,0.1-0.9,0.1-1.2,0.1
			c-0.4,0-0.5,0-0.5,0c-0.8-0.1-0.9-0.7-0.8-1c0-0.1,0.1-0.2,0.1-0.3c1.5-2,4.9-3.6,7.9-4.7c3-1.1,5.6-1.8,5.6-1.8
			c1.5-0.3,2.3-0.3,2.3-0.3c0.8,0,1.2,0.1,1.5,0.2c0.1,0.1,0.3,0.1,0.3,0.2c0.3,0.2,0.5,0.4,0.4,0.6c0,0.2-0.2,0.3-0.2,0.3
			c-0.1,0-0.2,0.1-0.3,0.1c-0.2,0-0.3,0-0.3,0c-3.6,0.6-6.8,1.6-9,2.5c-2.2,0.9-3.5,1.7-3.5,1.7c-0.9,0.5-1,0.8-1,0.8
			c0.1,0,0.3,0,0.5,0c0.3,0,0.6,0,0.6,0c4.7-0.2,8.7-1.2,11.5-2.2c2.8-1,4.4-1.9,4.4-1.9c3.4-1.5,3.8-2.4,3.9-2.7
			c0.1-0.8-3.9-1.8-4.2-1.9c-5.8-1.4-9.9-2.6-9.9-2.6c-3.9-1-4.1-2.3-4-2.5l0-0.2c0.1-0.6,0.8-1.3,1.4-1.7c0.6-0.5,1.2-0.8,1.2-0.8
			c2.8-1.8,9.5-5.1,15.1-5.9c0,0,0.2,0,0.4,0c0.3,0,0.7,0,1.2,0.2c0.2,0.1,0.4,0.2,0.5,0.3c0.2,0.2,0.4,0.7,0.3,1.3l-0.1,0.3
			c-0.3,1.5-1.4,3.2-2.4,4.4c-1,1.2-2,2.1-2,2.1c-0.4,0.4-0.9,0.5-1.1,0.5l-0.2,0c-1-0.1-1.1-0.9-1-1.4c0.1-0.3,0.2-0.6,0.3-0.8
			c0.1-0.2,0.2-0.4,0.2-0.4c0.4-0.6,1.1-1.3,1.7-1.7c0.5-0.4,0.9-0.6,1.1-0.7c0.5-0.7,0.7-1.2,0.8-1.5c0.1-0.3,0-0.4,0-0.4
			c-0.3-0.1-0.4-0.1-0.6-0.1c-0.4,0-1,0.1-2.3,0.5c0,0-6.4,1.7-10.4,4.7C646.1,44,645.3,44.6,645.2,45.1L645.2,45.1z"/>
		<path class="st0" d="M670.3,49.7l-0.6,1.7c0,0-0.9,2.4-1.3,3.7l-0.3,1c5.2-1.3,5.9-3.6,6-3.8C674.4,51.1,673.2,50,670.3,49.7
			 M674.7,54.9c0,0-2.1,1.9-7.2,3.1c-0.1,0.2-0.2,0.4-0.2,0.5c0,0-0.6,1.8-1,3.7c-0.3,1.5-0.4,2.8-0.1,3.3c0,0.1,0.1,0.2,0.1,0.3
			l0,0.2c-0.1,0.3-0.3,0.5-0.6,0.5c-0.2,0.1-0.5,0.1-0.8,0.1c-0.3,0-0.7,0-1.1-0.2c-0.2-0.1-0.3-0.1-0.5-0.2
			c-0.1-0.1-0.2-0.3-0.2-0.5c0-0.4,0.1-0.9,0.2-1.5c0.3-1.6,1-3.8,1.6-5.6c-0.4,0.1-0.9,0.1-1.4,0.2c-0.3,0-0.6,0-0.8,0
			c-1.3,0-1.5-0.6-1.4-1.1c0.1-0.4,0.3-0.8,0.5-1c0.1-0.1,0.2-0.2,0.3-0.3l0.2-0.1c0.3-0.1,0.5-0.2,0.7-0.2c0.2,0,0.4,0.1,0.4,0.2
			c0.1,0.1,0,0.2,0,0.2c-0.1,0.2-0.1,0.2-0.1,0.3c0.2,0.1,0.4,0.2,0.5,0.2h0.2c0.6,0,1-0.1,1.3-0.1l0.7-2.1c0.6-1.9,1.1-3.5,1.6-4.8
			c-0.5,0.1-0.7,0.2-0.7,0.2c-0.1,0-0.2,0.1-0.3,0.1l-0.2,0c-0.3,0-0.5-0.1-0.6-0.2c-0.1-0.1-0.1-0.1-0.1-0.2l0-0.2
			c0-0.1,0.4-1,2.4-1.4c0.3-1,0.4-1.6,0.4-1.6c0.1-0.2,0.1-0.2,0.2-0.3c0.2-0.1,0.4-0.2,0.8-0.2c0.3,0,0.7,0,1,0.1
			c0.3,0.1,0.7,0.3,0.6,0.8l-0.2,1c1.1,0.1,2.7,0.4,4.3,1.5c0,0,0.1,0.1,0.2,0.2c0.1,0.1,0.3,0.3,0.5,0.6c0.3,0.5,0.6,1.2,0.5,2.2
			C676.2,53.2,675.8,54,674.7,54.9"/>
		<path class="st0" d="M681.7,48.9c0,0-0.2,0.2-0.3,0.3c0,0-0.3,0.6-0.8,1.4c-0.4,0.9-0.9,2-1.1,3.3c-0.2,0.9-0.3,1.8-0.1,2.6
			c0,0,0.1,0.1,0.1,0.1l0.1,0c0,0,0.1,0,0.1,0.1c0.1,0.1,0.3,0.2,0.2,0.5c0,0.1-0.1,0.3-0.3,0.4c-0.9,0.7-1.6,0.8-2,0.8
			c-0.1,0-0.1,0-0.2,0c-1,0-1-0.7-0.9-1l0-0.1c0.2-1,0.2-1.9,0.4-2.7c0.7-3.3,1.9-5.8,1.9-5.8c0.1-0.1,0.1-0.2,0.2-0.3l0-0.1
			c0,0,0,0,0-0.1c0-0.1,0.1-0.1,0.1-0.2c0.1-0.1,0.4-0.2,0.7-0.3c0,0,0.4,0,0.9,0c0.2,0,0.4,0,0.6,0l0.2,0c0.1,0,0.2,0.1,0.2,0.1
			c0.1,0.1,0.1,0.2,0.1,0.4C682.1,48.4,682,48.6,681.7,48.9 M683.6,44.6c0,0-0.1,0.1-0.2,0.1c-0.1,0.1-0.4,0.2-0.7,0.3
			c-0.1,0.1-0.6,0.3-0.8,0.5l0,0.1c0,0.1,0,0.3,0,0.5c0,0.2-0.2,0.5-0.5,0.7c-0.2,0.1-0.4,0.2-0.6,0.2c-0.3,0-0.6-0.1-0.7-0.2
			c-0.1-0.1-0.2-0.1-0.2-0.1l-0.1-0.1c-0.3-0.6-0.4-1-0.3-1.4c0.1-0.3,0.2-0.5,0.3-0.6c0.1-0.1,0.1-0.1,0.2-0.1
			c0.2-0.2,0.8-0.7,2.5-0.7c0,0,0.3,0,0.6,0.1c0.1,0,0.3,0.1,0.4,0.2c0.1,0.1,0.3,0.3,0.2,0.5L683.6,44.6L683.6,44.6z"/>
		<path class="st0" d="M682.9,50.8c0.2-1,0.5-1.6,0.6-1.8c0.1-0.3,0.4-0.5,1-0.5l0.1,0c0.1,0,0.3,0,0.5,0.1c0.1,0,0.2,0.1,0.3,0.1
			c0.1,0,0.2,0.1,0.2,0.2c0.1,0.1,0.1,0.2,0.1,0.2c0,0.1,0,0.2,0,0.3c0,0.2-0.1,0.5-0.1,0.8l-0.2,1.1c-0.2,0.9-0.4,2-0.3,2.9
			c0.1-0.1,0.2-0.6,0.5-1.8c0,0,0.2-1.1,0.8-2.5c0.5-1.4,1.4-3,2.5-4.1c0,0,0.1-0.1,0.4-0.2c0.2-0.1,0.5-0.2,0.9-0.2
			c0,0,0.8,0.1,1.6,0.4c0,0,1.6,0.6,2.9,2.4c0,0,0.1,0.1,0.1,0.2c0,0.1,0,0.2,0,0.2c0,0.1-0.1,0.2-0.2,0.3c-0.1,0-0.2,0.1-0.2,0.1
			c-0.1,0-0.3,0-0.4,0h-0.2c-2.1-0.9-3.1-1.1-3.1-1.1c-0.1-0.1-0.3-0.1-0.3-0.1l-0.1,0.1c-0.9,1.9-1.7,4.1-1.7,4.1
			c-1.1,2.6-1.8,4.3-1.8,4.3c-0.6,1.5-0.9,1.9-1.1,2c-0.4,0.4-0.6,0.5-0.9,0.5c-0.1,0-0.2,0-0.3-0.1c-0.5,0-0.7-0.4-0.8-0.7
			c-0.1-0.2-0.1-0.3-0.1-0.4l0-0.2C682.6,54.4,682.6,52.2,682.9,50.8"/>
		<path class="st0" d="M698.6,48.9c0,0-0.2,0.2-0.3,0.3c0,0-0.3,0.6-0.8,1.4c-0.4,0.9-0.9,2-1.1,3.3c-0.2,0.9-0.3,1.8-0.1,2.6
			c0,0,0.1,0.1,0.1,0.1l0.1,0c0,0,0.1,0,0.1,0.1c0.1,0.1,0.3,0.2,0.2,0.5c0,0.1-0.1,0.3-0.3,0.4c-0.9,0.7-1.6,0.8-2,0.8
			c-0.1,0-0.1,0-0.2,0c-1,0-1-0.7-0.9-1l0-0.1c0.2-1,0.2-1.9,0.4-2.7c0.3-1.7,0.8-3.1,1.2-4.2c0.4-1,0.7-1.7,0.7-1.7
			c0.1-0.1,0.1-0.2,0.1-0.3l0-0.1c0,0,0,0,0-0.1c0-0.1,0.1-0.1,0.1-0.2c0.1-0.1,0.4-0.2,0.7-0.3c0,0,0.4,0,0.9,0c0.2,0,0.4,0,0.6,0
			l0.2,0c0.1,0,0.2,0.1,0.2,0.1c0.1,0.1,0.1,0.2,0.1,0.4C699,48.4,698.8,48.6,698.6,48.9 M700.4,44.6c0,0-0.1,0.1-0.2,0.1
			c-0.1,0.1-0.4,0.2-0.7,0.3c-0.1,0.1-0.6,0.3-0.8,0.5l0,0.1c0,0.1,0,0.3,0,0.5c0,0.2-0.2,0.5-0.5,0.7c-0.2,0.1-0.4,0.2-0.6,0.2
			c-0.3,0-0.6-0.1-0.7-0.2c-0.1-0.1-0.2-0.1-0.2-0.1l-0.1-0.1c-0.3-0.6-0.4-1-0.3-1.4c0.1-0.3,0.2-0.5,0.3-0.6
			c0.1-0.1,0.1-0.1,0.2-0.1c0.2-0.2,0.8-0.7,2.5-0.7c0,0,0.3,0,0.6,0.1c0.1,0,0.3,0.1,0.4,0.2c0.1,0.1,0.3,0.3,0.2,0.5L700.4,44.6
			L700.4,44.6z"/>
		<path class="st0" d="M707.6,43.6c1.5-0.2,3.3-0.3,4.1-0.4l0.1,0c0.1,0,0.2,0,0.3,0c0.1,0,0.2,0,0.3,0.1c0.1,0.1,0.2,0.2,0.2,0.4
			c-0.1,0.2-0.1,0.3-0.2,0.4c-0.1,0.2-0.3,0.4-0.7,0.6c-1,0.5-3.1,0.8-5,0.9c-0.2,0.4-0.3,0.9-0.5,1.5c-0.2,0.6-0.3,1.3-0.6,2
			c0,0-1,2.4-1.5,4.5c0,0-0.3,1-0.6,2.2c-0.3,1.4-0.4,2.8,0,3.3c0.1,0.1,0.2,0.1,0.3,0.1c0.1,0,0.2,0,0.3-0.2
			c0.2-0.2,0.3-0.3,0.4-0.4c0.2-0.2,0.5-0.4,0.8-0.5l0.2,0c0.1,0,0.2,0,0.3,0.1s0.2,0.1,0.3,0.2c0.1,0.1,0.2,0.2,0.1,0.4
			c-0.3,1.6-1,2.5-1.6,2.9c-0.3,0.2-0.6,0.3-0.8,0.3c-0.1,0-0.2,0-0.3,0c-0.2,0.1-0.4,0.1-0.6,0.1c-0.4,0-0.7-0.1-0.9-0.2
			c-0.2-0.1-0.4-0.2-0.4-0.2c-1.3-0.8-1.1-3.2-0.7-5c0.2-1,0.6-2,0.8-3c0.5-2.7,1.4-5.6,2.3-7.9c-0.5,0-0.8,0.1-1.1,0.1
			c-1.4,0.1-1.9,0.2-2.5,0.3l-0.2,0l-0.1,0c-0.5,0-0.6-0.3-0.6-0.5l0-0.2l0.1-0.1c0.1-0.1,0.2-0.2,0.3-0.3c0.2-0.2,0.6-0.5,1.1-0.7
			c0,0,0.7-0.2,3.5-0.4c0.8-2.1,1.5-3.6,1.5-3.6l0.1-0.1c0,0,0.1-0.1,0.2-0.1c0.2-0.1,0.4-0.1,0.7-0.1c0.3,0,0.5,0,0.9,0.1l0.2,0.1
			c0.1,0,0.2,0.1,0.4,0.1c0.1,0,0.2,0,0.3,0.1c0.2,0.1,0.3,0.3,0.2,0.5c0,0.1-0.1,0.3-0.2,0.5C708.8,41.3,708.3,42,707.6,43.6"/>
		<path class="st0" d="M710.5,57.2c-0.9,0.3-1.7,0.5-2.2,0.5c-0.4,0-0.7-0.1-0.8-0.1c-0.1,0-0.2-0.1-0.2-0.1l-0.1-0.1
			c-0.4-0.3-0.5-0.6-0.5-0.9c0.1-0.4,0.5-0.7,0.7-0.9c0.3-0.2,0.6-0.3,0.6-0.3c0.4-0.1,0.6-0.3,0.7-0.5c0.1-0.1,0.1-0.1,0.1-0.2l0,0
			l0.1-0.1c0,0,0.1-0.1,0.4-0.2c0.2-0.1,0.5-0.2,0.9-0.2l0.2,0l0.2,0c0.1,0,0.3,0.1,0.4,0.1c0.3,0.1,0.7,0.3,0.7,0.8
			c0,0.1,0.1,0.3,0.2,0.5c0,0,0,0.1,0.1,0.2c0,0.1,0,0.2,0,0.3C711.9,56.3,711.5,56.8,710.5,57.2"/>
	</g>
	<g>
		<path class="st0" d="M265.5,58.4c0,3.4-3.7,5-7.2,5h-2c-3.5,0-8.3-1.6-8.3-5.2v-9.4c0-2.8,0.5-4.3,0.5-7c0-0.9,0.2-2,0.2-3.1
			c0-0.9-0.1-1.6-0.4-2.2c-0.3-0.6-0.9-0.7-1.4-0.7c-0.5,0-1,0.1-1.7,0.1c-1.4,0-1.9,0.2-3.4,0.2c-0.4,0-1.3-0.4-1.3-1
			c0-0.3,0.3-1.3,0.9-1.5c3.5-1.1,6.8-1,8-4.4c0.8-2.1,1-2.7,1.6-4.7c0.4-1.3,1-3.1,2.4-3.1c1.5,0,1.7,2.3,1.7,4.1v0.9v0.8
			c0,1,0.3,1.2,0.3,2.7c0,0.8-0.5,1.7-0.5,2.3c0,0.3,0.2,0.6,0.5,0.7h0.6h1.1c1,0,2.6,0.4,2.6,1.4c0,0.9-0.7,1.5-1.6,1.6l-2.3,0.1
			c-0.4,0.1-0.5,0.8-0.5,1.3c0,1.6,0.2,3.5,0.2,5c0,2.1-0.3,3.4-0.3,5.4c0,4.8-0.1,6.3-0.1,11c0,1.8,0.5,3.2,2.3,3.2h2.2
			c1,0,1.9-0.7,1.9-1.7c0-1.6-2.1-1.8-2.1-3.4c0-1.1,1.2-2.2,2.4-2.2C263.6,54.6,265.5,56.6,265.5,58.4 M232.5,42.3
			c0-4.7-5.7-6.4-9.8-6.4c-4.1,0.1-9.2,3-9.2,5.8c0,2.4,1.2,2.4,5.9,2.4h10.2C230.9,44.1,232.5,43.6,232.5,42.3 M242.3,55.8
			c0,1-0.3,1.7-1,2.4c-3.8,3.5-9.6,6-16.1,6c-11.4,0-20.7-4.8-20.7-15.8c0-8.7,8.4-15.8,19.8-15.8c7.1,0,11.4,3.1,14.6,8.4
			c0.8,1.3,1.2,3,1.2,4.6c0,0.8-0.3,1.7-1.2,1.7h-12h-6.5c-1.4,0-2.9-0.3-4.2-0.3c-0.6,0-2.7,0.3-3,0.8c-0.3,0.4-0.5,1.5-0.5,2.7
			c0,1,0.2,2,0.5,3c0.9,2.3,2.8,4.6,4.2,5.4c1.6,0.9,4.6,2.3,8.7,2.3c4.7,0,8.8-1.9,11.6-4.9c0.9-1,1.5-2.4,2.9-2.4
			C241.5,53.9,242.3,54.7,242.3,55.8 M204.3,62.8c0,0.6-0.5,0.8-1.1,0.8c-0.5,0-1.1-0.1-1.6-0.1c-2.7,0-4-0.6-6.7-0.6
			c-1.7,0-2.8,0.5-4.6,0.5c-0.9,0-2.2,0.3-3.2,0.3c-1,0-1.6-0.3-1.6-1.2c0-1.2,2.3-0.7,4.1-2.2c1.1-1,1.4-1.9,1.4-2.9
			c0-0.6-0.1-1.2-0.1-1.8v-0.3c0.1-1.3,0.3-2.9,0.3-4.1c0-3.2,0-4.8-0.3-7.9c0-5.6,0.3-13.7,0.3-20.7c0-3.5-0.1-6.8-0.3-9.6
			c-0.1-1.4-0.3-3.5-1.7-3.5c-1.1,0-2.1,1-3.2,1.3c-0.2,0-0.3,0.1-0.5,0.1c-0.7,0-1.4-0.3-1.4-1c0-2,4.1-3.1,6.6-4.9
			c2.7-2,3.5-4.9,5.8-4.9c1.2,0,1.2,0.7,1.2,1.8c0,1.7-0.2,1.9-0.2,3.6c0,0.7,0.1,2.8,0.1,3.5c0,2.8,0.1,5,0.1,7.9
			c0,1.5,0.3,8.2,0.3,9.7c0,3.4,0.1,5.8,0.1,9.1c0,2.4-0.2,3.5-0.2,5.4c0,0.7,0,1.5,0.1,2.4v9.8c0,2.5,0.3,5.7,2.3,7.1
			C202,61.6,203.9,60.8,204.3,62.8 M176.9,48.1c0-8-3.4-11.2-8.1-11.2c-6.6,0-9.8,4.2-9.8,11.5c0,9.9,3.6,11.8,8.6,11.8
			C172.4,60.2,176.9,56.5,176.9,48.1 M184.4,48.2c0,8.4-5,15.7-15.8,15.7c-3.3,0-6.2-2.1-8.3-2.1c-0.8,0.6-0.9,4-0.9,6v3v28.9
			c0,0.4-0.1,0.7-0.1,1.3c0.5,2.4,3.6,1.5,3.6,3.4c0,1.3-1.4,2.1-2.5,2.7c-0.1,0.1-0.3,0.1-0.3,0.2c-2.6,1.4-4.3,1.4-6.9,2.6
			c-2.2,1-2.8,1.1-4.8,2.3c-1.5,1-1.9,1.6-4.2,2.2h-0.3c-0.7,0-1.5-0.4-1.5-1.1c0-1.6,1.6-2,3.4-3.2c2.3-1.6,4.2-2.9,5.7-5.2
			c0.7-1.1,0.9-2.2,0.9-3.3c0-0.7-0.1-1.4-0.1-2.1V99v-0.9V81.4c0-1.3,0.2-1.9,0.2-3.1v-6.4v-1c0.1-2.3,0.3-3.9,0.3-6.4
			c0-5.5-0.3-8-0.3-13.6c0-2.5,0.1-4.4,0.1-6.8c0-2-0.6-4.6-2.6-4.6c-1.9,0-3.5,1.8-4.5,1.8c-0.8,0-1.7-0.9-1.7-1.6
			c0-1,3.8-2.8,5.8-4.2c2.7-2,3.6-3.5,6.9-4.4c0.2,0,0.3-0.1,0.4-0.1c0.9,0,1.5,0.9,1.5,1.9c0,0.9-0.2,1.9-0.2,2.8
			c0,0.6,0.3,1,0.9,1c0.3,0,0.6-0.1,1-0.4c3-2.2,6.2-3.5,9-3.5C178.5,32.8,184.4,38.4,184.4,48.2 M148.5,62.7c0,0.3-0.3,0.7-0.6,0.7
			c-1.6,0-2.5-0.5-4.1-0.5c-1.6,0-2.3,0-3.9-0.1h-2c-1.8,0-4.6,0.3-6.5,0.3c-0.9,0-1.6,0.3-2.6,0.3c-0.6-0.1-1.3-0.2-1.3-0.9
			c0-1,1.4-1,2-1.9c0.5-0.8,1.3-1,1.3-2c0-3-2.5-5.1-4.2-7.5c-1-1.3-1.4-2.3-2.3-3.7c-1.5-2.2-1.5-2.8-2.9-4.9
			c-0.1-0.2-0.3-0.4-0.3-0.5c-1.4-2.1-3.2-4.8-5.5-4.8c-3.6,0-5.7,4.3-5.7,7c0,1.5,0.6,2.2,1.2,3.6c1.2,2.9,1.7,3.3,2.5,6.3
			c0.6,2.2,1.6,3.4,3,5.1c0.8,0.9,2.1,1.5,3.1,2.1c0.9,0.4,2.3-0.2,2.3,0.9c0,0.8-0.6,1-1.5,1c-3.1,0-6.5-0.4-9.6-0.4
			c-1.5,0-2.3,0.3-3.7,0.3c-0.4,0-0.9,0.1-1.2,0.1c-0.5,0-1-0.2-1-0.7c0-1.7,3-1.1,3-2.9c0-1.4-0.9-2.4-1.6-3.6
			c-1.8-3.8-1.8-4.8-3.2-8.3c-0.9-2.2-2.1-3.1-3.1-5.3c-1-2.2-1.8-5.4-4.3-5.4c-3.4,0-4.2,4.2-4.2,7.6c0,1.8,0.3,3,0.3,4.8
			c0,1.1-0.1,1.5-0.1,2.6c0,0.5-0.2,1.6-0.2,2.2c0,2.8,1.4,5.9,2.2,6.7c1.2,1.2,2.7,0.6,2.7,1.7c0,0.7-0.6,0.8-1.7,0.8
			c-2.9,0-5.4-0.5-8.5-0.4c-1.4,0-3.1,0.2-4.5,0.1c-0.7,0-1.5,0.3-2.1,0.3c-0.3,0-0.7-0.1-0.7-0.5c0-0.9,1-1.2,1.7-1.6
			c1.8-0.9,3.3-0.8,3.9-2.6c0.1-0.2,0.1-0.5,0.1-0.9v-1v-0.5l0.1-2.4c0-0.5,0.1-1,0.1-1.3c0-1-0.2-1.6-0.2-3.2c0-1.6-0.1-3-0.1-4.7
			c0-2.4-0.1-5-3-5h-0.5c-0.6,0.1-1.2,0.3-1.8,0.3c-0.4,0-0.9-0.7-0.9-0.8c0-1,1.6-1.7,2.9-2.4c1.6-0.9,3.5-0.9,4.8-2.2
			c1.3-1.3,3-2.7,4.2-2.7c0.2,0,0.3,0,0.5,0.1c0.7,0.4,0.9,0.7,0.9,1.1c0,0.3-0.1,0.6-0.1,1.1v0.9c0,0.4,0.6,1.1,0.7,1
			c1.9-1.8,4.3-3.5,6.7-3.5c3,0,5.9,2.6,6.8,5.5c0.3,0.7,1.3,1.7,2.2,1.7c0.7,0,2.1-4.8,6.5-6.8c0.8-0.3,5.4-0.5,6.1-0.5
			c4.1,0,5.8,4.5,8.1,8c2.3,3.5,2.9,5.1,5.3,8.6c1.6,2.5,2.8,3.9,4.9,6.3c0.7,0.9,1.3,2.5,2.2,3.1c1.6,1.3,2.5,1.1,4.5,1.8
			C147.2,61,148.5,61,148.5,62.7 M67.4,42.3c0-4.7-5.7-6.4-9.8-6.4c-4.2,0.1-9.3,3-9.3,5.8c0,2.4,1.2,2.4,5.9,2.4h10.2
			C65.8,44.1,67.4,43.6,67.4,42.3 M77.2,55.8c0,1-0.3,1.7-1,2.4c-3.8,3.5-9.6,6-16.1,6c-11.4,0-20.7-4.8-20.7-15.8
			c0-8.7,8.4-15.8,19.8-15.8c7.1,0,11.4,3.1,14.6,8.4c0.8,1.3,1.2,3,1.2,4.6c0,0.8-0.3,1.7-1.2,1.7h-12h-6.5c-1.4,0-2.8-0.3-4.2-0.3
			c-0.6,0-2.7,0.3-3,0.8c-0.3,0.4-0.5,1.5-0.5,2.7c0,1,0.2,2,0.5,3c0.9,2.3,2.8,4.6,4.2,5.4c1.5,0.9,4.6,2.3,8.7,2.3
			c4.7,0,8.8-1.9,11.6-4.9c0.9-1,1.5-2.4,2.8-2.4C76.4,53.9,77.2,54.7,77.2,55.8 M51.4,15.7c0,0.2-1.1,0.7-1.5,0.7
			c-1.5,0-2.6-1.9-3.5-2.9c-1.6-2-2.3-2.1-4.9-2.5c-2.9-0.4-4.8-0.5-7.3-0.5h-2.3c-1.6,0-2.3,0.9-2.3,2.6l-0.1,7
			c0,3.1,0.3,5.7,0.3,8.8v5.8c0,2.7,0.1,4.1,0.1,6.7c0,1.6-0.3,2.7-0.3,4.2c0,2.1,0.2,3.2,0.2,5.3c0,1.6-0.1,3.5-0.2,5.1
			c0,0.4-0.1,0.8-0.1,1.1c0,0.8,0.2,1.4,0.8,2c1.7,1.8,5.7,1.5,5.7,3.3c0,1.2-0.7,1.3-1.4,1.3h-0.7c-1.6,0-2.8-0.7-4.4-0.6
			c-1.3,0-3.6-0.2-5.4-0.2c-0.6,0-1.1,0.1-1.6,0c-1.9,0.2-2.5,0.6-4.4,0.6c-1,0-1.6-0.6-1.6-1.5c0-1.6,3.7-1.5,4.8-3.2
			c0.5-0.9,0.6-1.5,0.6-2.3V55v-0.6c0.3-3.9,0.3-7.9,0.3-11.8c0-2.7-0.1-5.4-0.1-8v-4.5c0-0.9-0.2-4.2-0.2-5.3
			c0-2.8,0.2-5.6,0.2-8.6c0-1.2,0-2.2-1-4.8c-0.2-0.5-0.5-0.9-1-0.9c-1-0.2-2-0.2-3.4-0.2c-1.8,0-2.9,0.1-4.8,0.1
			c-2.9,0-4.8,0.5-6.8,2.6C3.3,14.2,3,16.3,1,16.3c-0.4,0-1-0.7-1-1.1c0-2,1.4-3.4,2.3-5.1C3.6,7.9,4.6,3.9,6,3.9
			c1.3,0,2.1,2.5,3.6,2.5c2.1,0,3.5,0.3,5.5,0.3c5.4,0,8.5-0.4,13.8-0.4c1.8,0,6.2,0.4,7.2,0.4c1.1,0,2.2,0.1,3.1,0.1
			c1,0,1.7-0.1,2.3-0.3c1-0.4,2-1.6,3.2-1.6c1,0,3.1,4.2,4.3,6.1C50.6,13.3,51.4,13.2,51.4,15.7 M346.8,63.1c0,0.8-1,0.9-1.8,0.9
			c-3.1,0-4.8-1.4-8-1.4l-6.8,0.9c-0.7,0-1.6,0-1.6-0.6c0-2,4.2-0.9,4.2-2.9c0-1.5-0.9-2.1-1.3-3.5c-0.9-3.2-1.7-4.8-3-7.9
			c-1.2-2.7-1.6-4.4-2.9-7c-0.9-1.7-1.8-4.3-3.7-4.3c-2.7,0-5,2.3-5,5c0,1.1,0.1,1.1,0.1,2.2c0,2.1-0.3,4.1-0.3,6.2
			c0,1,0.1,1.8,0.1,2.7v3.9c0,0.6-0.1,1.1-0.1,1.6c0,0.5,0.1,1,0.4,1.4c1,1.2,3.3,0.5,3.3,2.2c0,0.7-0.9,0.9-1.6,0.9
			c-1.7,0-2.7-0.8-4.4-0.8c-0.7,0-1.6,0.2-2.3,0.2c-0.6,0-1-0.2-1.6-0.2c-1.4,0-2.4,0.4-3.9,0.4c-0.7,0-1.5-0.3-1.5-1
			c0-1.6,2.2-1.8,3.7-2.5c0.9-0.4,1-1.3,1-2.3c0-0.9,0.1-1.7,0.1-2.5c0-2.7-0.4-3.8-0.4-6.5c0-0.6,0.1-1.2,0.1-1.9
			c0-0.5-0.1-1-0.2-1.5l0.4-4.7c0-0.5-0.6-1.4-1-1.4c-0.3,0-1.7,0.9-3.2,0.9H305c-0.5-0.1-1-0.9-1-1.1c0-0.9,1.4-0.9,2.2-1.3
			c1.5-0.8,3-1,4.4-2.2c1.7-1.4,3.5-3.2,5.7-3.2c0.4,0,1,0.8,1,1.2c0,0.9-0.6,1.3-0.6,2.2c0,0.2,0.2,0.7,0.4,0.7
			c0.2,0,0.3-0.3,0.4-0.3c1.8-1.5,3.6-2.9,7.1-2.9c4,0,6.2,3.8,7.9,7.5c1.5,3.3,2.3,5.1,3.7,8.3c1.6,3.4,2,5.4,3.8,8.7
			c1.1,2,2.4,2.9,4.5,4C345.4,61.9,346.8,62,346.8,63.1 M280.2,35.6c-0.8,0-1.7,0.2-2.3,0.6c-1.2,0.7-1.9,1.8-2.2,3.1
			c-0.5,1.9-0.4,3.5,0.1,6.4c0.3,1.6,1.4,4.2,2.5,6c0,0.2,0.1,0.2,0.2,0.4c1.3,2.1,2.7,4,4.4,5.3c2.9,2.2,5.6,3.4,7.8,3.3
			c0.7-0.1,1.2-0.3,1.8-0.6c1.1-0.7,1.8-1.7,2.1-3l0.1-0.4c0.6-2.4,0.4-4.1-0.3-6.5c-0.5-1.9-1.2-4.1-2.5-6.1
			c-1.5-2.5-3.3-4.6-5.3-5.8C284.2,36.7,282.2,35.5,280.2,35.6 M284.3,32.2c3.2,0,6.9,0.4,9.4,1.8c2.3,1.4,4.1,3.5,5.6,6
			c1,1.8,1.6,3.8,1.9,5.7c0.3,2.2-0.3,4.9-0.9,7c-1,3.9-3.5,7.3-7.2,9.4c-2.1,1.2-4.4,1.7-6.6,1.8c-1.4,0.1-2.7-0.1-4.2-0.3
			c-2.4-0.5-5.1-1.7-6.8-3.1c-1.6-1.3-3.2-2.9-4.1-4.9c-2.8-6.3-1.7-9.4-1.2-11.3c0.2-0.7,0.4-1.4,0.6-2.1c1.2-3.5,3.6-6.5,6.9-8.3
			c2-1.2,4.1-1.8,6.2-1.9L284.3,32.2z"/>
	</g>
</g>
</svg>
