<?xml version="1.0" encoding="utf-8"?>
<!-- Generator: Adobe Illustrator 25.4.1, SVG Export Plug-In . SVG Version: 6.00 Build 0)  -->
<svg version="1.1" id="Layer_1" xmlns="http://www.w3.org/2000/svg" xmlns:xlink="http://www.w3.org/1999/xlink" x="0px" y="0px"
	 viewBox="0 0 556.3 710.2" style="enable-background:new 0 0 556.3 710.2;" xml:space="preserve">
<style type="text/css">
	.st0{fill:#604822;}
	.st1{fill:#DDD1C1;}
</style>
<path class="st0" d="M-791.4,377c0,0,0.1,0,0.1-0.1c-0.1,0-0.2,0-0.3-0.1C-791.5,376.9-791.4,377-791.4,377z"/>
<g>
	<path class="st1" d="M55.1,1.6C55.1,1.6,55.1,1.6,55.1,1.6L55.1,1.6z"/>
	<path class="st1" d="M55,1.7C55,1.7,55,1.7,55,1.7c0-0.1,0.1-0.1,0.1-0.1C55.1,1.7,55,1.7,55,1.7z"/>
	<path class="st1" d="M6.5,619.4C6.5,619.4,6.5,619.4,6.5,619.4C6.5,619.4,6.5,619.4,6.5,619.4L6.5,619.4z"/>
	<path class="st1" d="M499.2,29.1c-9,0.1-21.1,0.3-27.1,0.4c-3.4,0.1-8,0.2-10.2,0.3c-8.5,0.2-19.8,0.4-25.4,0.5
		c-10,0.2-22.9,0.5-31.5,0.7l-10.4,0.2c-13.2,0.3-28.7,0.6-36.8,0.7c-18.6,0.4-43.6,1.1-55.8,1.4c-8.5,0.2-19.9,0.4-25.4,0.4
		c-6.4,0.1-15,0.4-19.3,0.6c-6.2,0.1-14.4,0.2-18.5,0.2c-13.4,0.3-31.4,0.8-40.2,1.1c-12.7,0.4-29.8,0.8-38.1,1
		c-1.9,0.1-4.5,0.2-5.7,0.2c-10.9,0.2-25.6,0.5-32.8,0.6c-6.8,0.1-16,0.4-20.5,0.5c-3.2,0.1-6.7,0.2-10.2,0.3L61.1,1.5
		c-1.8-2.1-4.5-2-6.1,0.2C54.5,2.5,50.7,7.9,28,39.6c-0.1,0.1-0.1,0.2-0.2,0.3c-0.3,0-0.7,0-0.9,0c-6.4,0.1-15.1,0.3-19.3,0.3
		c-2.2,0-4.6,0.3-5.5,0.6c-0.6,0.2-1.2,0.7-1.2,1c-0.1,0.5-0.4,1.6-0.2,2.6c0.5,4,0.9,9.5,0.9,12.2c-0.2,1.3,0,3.1,0.5,4
		c0.1,0.7,0,1.6-0.1,2c-0.6,2.2-1.4,4.6-1.7,5.5c-0.2,0.6-0.2,1.3,0,1.5c0.4,0.3,1.1,0.9,1.9,1.4c3,1.8,4.8,5.3,3.9,7.8
		c-0.2,1.5-0.3,3.5-0.3,4.5c0,0.6,0.2,1.5,0.4,1.9c1.2,1.3,1.3,2.7,0.1,3.1c-0.2,0.3-0.2,0.8,0,0.9c0.4,0.3,1.1,0.9,1.4,1.1
		c0.2,0.1,0,0.9-0.4,1.8c-0.7,1.6-0.1,3.9,0.9,5c0.5,0.6,0.8,1.3,0.5,1.5c-0.4,0.4-1.3,1.2-1.8,1.6c-0.2,0.2-0.4,0.3-0.4,0.4
		c0.1,0,0.2,0.1,0.3,0.1c0.4,0.1,1.1,0.4,1.4,0.4c0.1,0,0.7,0.8,1.2,1.6c0.9,1.5-1.5,4.2-1.2,5.4c0.2,0.7,0.5,1.4,0.8,1.7
		c0.5,0.5,1.6,1.2,2.2,2.2c0.2,0.3,0.5,0.7,0.7,1.1c-0.5,4.1,0,8.2,1.3,10.5c0.7,2.3,0.6,5.2-0.3,6.5c-0.4,0.7-0.7,1.7-0.8,2.2
		c-1.3,4.5-1.5,10.7-0.5,13.8c0.6,2,0.5,4.5-0.2,5.7c-1.4,3.3-2,8-1.4,10.4c0.1,0.8,0.2,1.8,0.3,2.4c0,2.6,0,6,0,7.7
		c-0.8,4.6-1.5,10.9-1.5,14c-0.3,4-1.1,9.3-1.8,11.9c-0.2,0.5-0.3,1.4-0.2,1.9c-0.1,1.8-0.3,4.1-0.4,5.3c-0.3,1.7-0.2,3.8,0.2,4.7
		c0.5,1.8,0.8,4.4,0.7,5.7c-0.5,2.8-0.5,6.4,0,8.1c0.2,0.6,0,1.7-0.4,2.3c-0.4,2.4-0.8,5.6-0.9,7.1c0.3,2.5,0.3,5.8-0.2,7.2
		c-0.1,2.9-0.9,5.7-1.8,6.2c-0.6,0.4-1.2,1.5-1.3,2.6c-0.3,1.8-0.8,5.3,0.3,8.6c1.1,3.4,1.1,7.9,0,9.9c-0.4,1.2-0.7,2.9-0.8,3.8
		c0,2.8-0.9,6.3-1.9,7.8c-0.1,0.2-0.1,0.7,0.1,0.9c0,0.2,0.6,0.6,1.2,0.9c1.2,0.6,1.9,3.7,2.7,4.9c0.5,0.6,0.7,1.3,0.6,1.4
		c-0.2,0.3-0.3,0.8-0.6,1.1c-1,1.2-1.2,3-0.6,4c0.2,0.6,0.4,1.4,0.4,1.9c0.2,1.5-0.4,3.2-1.2,3.8c-0.3,0.2-0.5,0.6-0.4,1
		c0,0.1-0.1,0.2,0,0.3c0,0.1,0,0.4,0.1,0.5c1.6,1.4,2.3,3.8,1.5,5.5c-0.2,0.3-0.1,0.9,0.2,1.4c0.2,1.3,0.3,3,0.4,3.8
		c0,1.7,0.3,3.8,0.8,4.7c0.8,2.2,1.3,5.4,1,7.1c-0.2,3.2,0,7.5,0.5,9.5c0.2,0.4,0.2,1,0.1,1.4c-1.4,2.7-1.7,6.5-0.6,8.5
		c-0.1,0.2,0,0.8,0.4,1.3c0.8,0.9,1.2,2.3,0.8,3.1c0.6,5.6,1.5,11.8,1.9,13.8c0.7,1.3,1.1,3.1,0.8,4c-0.5,1.6-0.6,4.7,0.5,7.6
		c1.5,3.8,1.4,8.9-0.1,11.3c-1,2.4-1.9,5.7-1.8,7.3c-0.2,0.9-0.2,2.1,0,2.8c1,2,1.1,4.5,0.1,5.7c0.2,2-0.1,4.6-0.6,5.7
		c-1.5,3.1-2.3,7.5-1.8,9.9c0,4.7-0.7,11-1.4,13.9c0.1,0.6-0.2,1.4-0.5,1.8c-0.9,3.4-1.2,8.1-0.7,10.5c0.3,1,0.3,2.5,0.1,3.3
		c-0.4,3.1-0.5,7.2-0.1,9.2c0.1,0.7,0.1,1.8-0.1,2.4c-0.3,1.9-0.6,4.5-0.8,5.8c-0.4,2.6-0.1,6,0.6,7.6c0.4,1.1,0.7,2.8,0.6,3.7
		c-0.7,4.3-1.3,9-1.2,10.5c-0.5,1-0.7,2.5-0.6,3.5c0.3,1.7,0.9,4.7,1.5,7.7c0.1,0.5,0.1,1.1,0.1,1.4c-0.8,2.9-1.6,6.2-2,7.3
		c-0.2,0.8-0.4,1.8-0.3,2.2c0.1,0.8,0.3,2.4,0.6,3.9c0.1,0.6,0.3,1.4,0.5,1.8c2.2,2.8,3.5,7.2,3.1,9.9c0.5,3.8,0.5,8.9,0,11.4
		c0,2.1-0.5,4.8-1.1,6.2c-0.2,1.1-0.6,2.3-0.8,2.6c-0.1,0.3,0,0.9,0.1,1.5c0.3,1,0.9,2.8,1.5,4.6c1.1,3.6,2,8.4,2.1,11.4
		c-2.1,0.1-4.5,0.3-5.3,0.6c-0.6,0.2-1.2,0.7-1.2,1c-0.1,0.5-0.4,1.6-0.2,2.6c0.5,4,0.9,9.5,0.9,12.2c-0.2,1.3,0,3.1,0.5,4
		c0.1,0.7,0,1.6-0.1,2c-0.6,2.2-1.4,4.6-1.7,5.5c-0.2,0.6-0.2,1.3,0,1.5c0.4,0.3,1.1,0.9,1.9,1.4c3,1.8,4.8,5.3,3.9,7.8
		c-0.2,1.5-0.3,3.5-0.3,4.5c0,0.6,0.2,1.5,0.4,1.9c1.2,1.3,1.3,2.7,0.1,3.1c-0.2,0.3-0.2,0.8,0,0.9c0.4,0.3,1.1,0.9,1.4,1.1
		c0.2,0.1,0,0.9-0.4,1.8c-0.7,1.6-0.1,3.9,0.9,5c0.5,0.6,0.8,1.3,0.5,1.5c-0.4,0.4-1.3,1.2-1.8,1.6c-0.2,0.2-0.4,0.3-0.4,0.4
		c0.1,0,0.2,0.1,0.3,0.1c0.4,0.1,1.1,0.4,1.4,0.4c0.1,0,0.7,0.8,1.2,1.6c0.9,1.5-1.5,4.2-1.2,5.4c0.2,0.7,0.5,1.4,0.8,1.7
		c0.3,0.3,0.8,0.7,1.2,1.1c-0.1,1.7-0.3,3.2-0.7,4.3c-0.6,4.2-0.8,9.8-0.5,12.6c0.5,4.3,1.2,10.2,1.4,13c0.3,2.4,0.3,5.7,0,7.2
		c-0.2,1.8-0.4,4.2-0.2,5.4c0,1-0.2,2.3-0.3,2.9c-1.3,2.9-1.4,6.7-0.1,8.6c0.4,3.2,1,7.5,1.2,9.6c0.2,3.2,0.3,7.6,0.2,9.7
		c0,2.3,1.4,3.9,3.1,3.5c1.7-0.3,3.5,0.3,4.2,1.2c0.7,0.5,1.5,0.9,1.8,0.9c0.2,0.1,0.7,0,1.2-0.2c0.8-0.4,2.3-1.2,3.9-1.7
		c2.2-0.6,4.9-1.1,5.9-1.1c0.7-0.1,1.6-0.1,1.9,0.1c0.6,0.3,2.2,1.2,2.9,1.6c0.4,0.2,1,0.3,1.3,0.3c0.6-0.1,1.5-0.5,2.4-0.6
		c0.8-0.1,1.8,0,2.4,0.2c0.9,0.3,2.1,0.7,2.7,1c0.9,0,1.8-0.4,2.1-0.8c0.2-0.1,0.7,0.2,0.9,0.7c0.5,0.9,1.5,2.6,3.2,1.8
		c2.8-1.3,6.4-3.1,8.2-4.2c1.1-1.4,3-1.9,4.2-1.2c1.2,0.3,2.8,0.4,3.6,0.1c2.3-0.8,4.9,0.1,5.8,1.9c0.1,0.2,0.4,0.5,0.7,0.5
		c1.3,1.1,3.1,1.5,4.1,0.8c3.8-1.2,9-1.8,11.6-1.4c0.6,0.1,1.5-0.1,1.9-0.5c2.3-2.4,5.8-3.8,7.9-2.9c2.4,0,5.4,0.4,6.9,0.9
		c1.5,0.4,3.5,0,4.3-0.8c0.7-0.6,1.9-1.1,2.6-1c2,1.2,4.8,1.9,6.3,1.6c1.7,1.2,3.9,0.8,4.9-0.9c0.1-0.1,0.2-0.2,0.3-0.2
		c0.8,0.2,1.4,0.3,2,0.5c0.1,0.1,0.2,0.1,0.3,0.2c1.5,0.9,1.5,0.9,2.9,0.4c0.8-0.2,2,0,2.6,0.6c1.2,1,3.8,2.1,6.8,0.7
		c1-0.4,2.4-0.5,3.2-0.2c0.9,0,2.2,0.2,2.8,0.4c1.3-0.3,2.9,0.1,3.5,0.9c1.4,1,3.3,2.2,4.3,2.8c1.6,1.3,3.8,1.4,4.8,0.2
		c0.4,0.2,0.9,0.3,1.2,0.3c1.5,0.2,2.8-0.7,2.8-2.1c0.3-0.9,0.5-2.1,0.6-3c2.4,0.1,4.6,0.9,5,1.8c0.3,0.6,1.3,1.2,2.2,1.3
		c1.5,0.3,4.5,0.8,7.2-0.3c2.9-1.1,6.6-1.1,8.3,0c1,0.4,2.4,0.7,3.2,0.8c2.4,0,5.3,0.9,6.5,1.9c0.2,0.1,0.5,0.1,0.8-0.1
		c0.1,0,0.5-0.6,0.8-1.2c0.5-1.2,3.1-1.9,4.1-2.7c0.5-0.5,1.1-0.7,1.2-0.6c0.3,0.2,0.7,0.3,0.9,0.6c1,1,2.5,1.2,3.4,0.6
		c0.5-0.2,1.2-0.4,1.6-0.4c1.3-0.2,2.7,0.4,3.2,1.2c0.2,0.3,0.5,0.5,0.8,0.4c0.1,0,0.2,0.1,0.3,0c0.1,0,0.3,0,0.4-0.1
		c1.2-1.6,3.2-2.3,4.6-1.5c0.2,0.2,0.7,0.1,1.2-0.2c1.1-0.2,2.5-0.3,3.2-0.4c1.4,0,3.2-0.3,3.9-0.8c1.8-0.8,4.5-1.3,6-1
		c2.7,0.2,6.3,0,8-0.5c0.3-0.2,0.9-0.2,1.2-0.1c2.3,1.4,5.5,1.7,7.2,0.6c0.2,0.1,0.7,0,1.1-0.4c0.7-0.8,1.9-1.2,2.6-0.8
		c4.7-0.6,9.9-1.5,11.6-1.9c1.1-0.7,2.6-1.1,3.4-0.8c1.4,0.5,3.9,0.6,6.4-0.5c3.2-1.5,7.5-1.4,9.5,0.1c2,1,4.8,1.9,6.2,1.8
		c0.7,0.2,1.8,0.2,2.3,0c1.7-1,3.8-1.1,4.8-0.1c1.7-0.2,3.8,0.1,4.8,0.6c2.6,1.5,6.3,2.3,8.3,1.8c4,0,9.2,0.7,11.7,1.4
		c0.5-0.1,1.1,0.2,1.5,0.5c2.9,0.9,6.8,1.2,8.8,0.7c0.9-0.3,2.1-0.3,2.8-0.1c2.6,0.4,6,0.5,7.7,0.1c0.6-0.1,1.5-0.1,2,0.1
		c1.6,0.3,3.8,0.6,4.8,0.8c2.2,0.4,5.1,0.1,6.4-0.6c1-0.4,2.4-0.7,3.1-0.6c3.6,0.7,7.5,1.3,8.8,1.2c0.8,0.5,2.1,0.7,2.9,0.6
		c1.5-0.3,4-0.9,6.5-1.5c0.4-0.1,0.9-0.1,1.2-0.1c2.5,0.8,5.2,1.6,6.1,2c0.7,0.2,1.5,0.4,1.9,0.3c0.6-0.1,2-0.3,3.3-0.6
		c0.5-0.1,1.2-0.3,1.5-0.5c2.4-2.2,6.1-3.5,8.3-3.1c2.3-0.4,5.3-0.5,7.5-0.3c0.1,1.5,0.3,2.8,0.4,3.4c0.2,0.8,0.7,1.5,1,1.5
		c0.5,0.1,1.6,0.5,2.6,0.3c4-0.6,9.5-1.1,12.2-1.1c1.3,0.3,3.1,0,4-0.6c0.7-0.1,1.6,0,2,0.1c2.2,0.7,4.6,1.7,5.5,2.1
		c0.6,0.2,1.3,0.2,1.5-0.1c0.3-0.5,0.9-1.4,1.4-2.4c1.8-3.7,5.3-5.9,7.8-4.8c1.5,0.2,3.5,0.4,4.5,0.4c0.6,0,1.5-0.2,1.9-0.5
		c1.3-1.5,2.7-1.6,3.1-0.2c0.3,0.3,0.8,0.3,0.9,0c0.3-0.5,0.9-1.4,1.1-1.8c0.1-0.2,0.9,0,1.8,0.4c1.6,0.8,3.9,0.1,5-1.1
		c0.6-0.7,1.3-1,1.5-0.7c0.4,0.5,1.2,1.6,1.6,2.2c0.2,0.2,0.3,0.4,0.4,0.5c0-0.1,0.1-0.2,0.1-0.4c0.1-0.5,0.4-1.4,0.4-1.7
		c0-0.1,0.1-0.2,0.3-0.4c1.6,0.3,3.2,0.3,4.2,0.1c0.2-0.1,0.5-0.1,0.8-0.1c0.7,0.4,1.2,0.6,1.7,0.5c0.1,0,0.2-0.1,0.4-0.1
		c0.1,0.1,0.3,0.1,0.4,0.2c2.1,0.4,5,0.7,6.5,0.5c4-1.1,9.5-1.1,12.1-0.1c3.5,0.6,8.3,0.8,10.6,0.5c3.6-0.5,8.5-1.2,10.9-1.4
		c2-0.3,4.8-0.3,6.1,0c1.5,0.2,3.5,0.3,4.5,0.2c0.8,0,1.9,0.2,2.4,0.3c2.4,1.3,5.6,1.4,7.2,0.1c2.7-0.4,6.3-1,8.1-1.2
		c2.7-0.2,6.4-0.3,8.2-0.2c1.9,0,3.3-1.4,3-3.1c-0.2-1.7,0.2-3.5,1-4.2c0.4-0.7,0.8-1.5,0.7-1.8c0.1-0.2,0-0.7-0.2-1.2
		c-0.3-0.8-1-2.3-1.4-3.9c-0.5-2.2-0.9-4.9-0.9-5.9c-0.1-0.7-0.1-1.6,0.1-1.9c0.3-0.6,1-2.2,1.3-2.9c0.2-0.4,0.3-1,0.2-1.3
		c-0.1-0.6-0.4-1.5-0.5-2.4c-0.1-0.8,0-1.8,0.2-2.4c0.2-0.9,0.6-2.1,0.9-2.7c0-0.9-0.3-1.8-0.7-2.1c-0.1-0.2,0.2-0.7,0.6-0.9
		c0.7-0.5,2.2-1.5,1.5-3.2c-1.1-2.8-2.6-6.4-3.5-8.2c-1.1-1.1-1.6-3-1-4.2c0.3-1.2,0.3-2.8,0.1-3.6c-0.6-2.3,0.1-4.9,1.6-5.8
		c0.2-0.1,0.4-0.4,0.4-0.7c1-1.3,1.3-3.1,0.7-4.1c-1-3.8-1.5-9-1.2-11.6c0.1-0.6-0.1-1.5-0.5-1.9c-2.1-2.3-3.2-5.8-2.5-7.9
		c0-2.4,0.4-5.4,0.8-6.9c0.3-1.5,0-3.5-0.6-4.3c-0.5-0.7-0.9-1.9-0.8-2.6c1-2,1.6-4.8,1.3-6.3c1-1.7,0.7-3.9-0.7-4.9
		c-0.3-0.2-0.4-0.7-0.3-0.9c0-0.1,0.3-0.8,0.7-1.6c0.7-1.5,0.7-1.5,0.4-2.9c-0.2-0.8,0-2,0.5-2.6c0.9-1.2,1.8-3.8,0.6-6.8
		c-0.4-1-0.5-2.4-0.2-3.2c0-0.9,0.2-2.2,0.3-2.8c-0.3-1.3,0.1-2.9,0.8-3.5c0.8-1.4,1.9-3.3,2.3-4.3c1.1-1.6,1.2-3.8,0.2-4.8
		c0.1-0.4,0.3-0.9,0.3-1.2c0.2-1.5-0.6-2.8-1.7-2.8c-0.9-0.3-2.1-0.6-2.8-0.6c-0.4,0-0.8-0.1-1.3-0.1c0,0,0,0,0,0
		c0.3-1.7,0.2-3.9-0.2-4.9c-0.5-1.9-0.8-4.5-0.7-5.9c0.5-2.9,0.5-6.6,0-8.3c-0.2-0.7,0-1.7,0.4-2.4c0.4-2.4,0.8-5.7,0.9-7.3
		c-0.3-2.6-0.3-5.9,0.2-7.4c0.1-3,0.9-5.8,1.8-6.3c0.6-0.4,1.2-1.6,1.3-2.6c0.3-1.9,0.8-5.5-0.3-8.8c-1.1-3.5-1.1-8.1,0-10.2
		c0.4-1.2,0.7-3,0.8-3.9c0-2.9,0.9-6.5,1.9-8c0.1-0.2,0.1-0.7-0.1-1c0-0.2-0.6-0.6-1.2-1c-1.2-0.6-1.9-3.8-2.7-5
		c-0.5-0.6-0.7-1.3-0.6-1.5c0.2-0.3,0.3-0.8,0.6-1.1c1-1.2,1.2-3.1,0.6-4.1c-0.2-0.6-0.4-1.4-0.4-1.9c-0.2-1.6,0.4-3.3,1.2-3.9
		c0.3-0.2,0.5-0.6,0.4-1c0-0.1,0.1-0.2,0-0.3c0-0.2,0-0.4-0.1-0.5c-1.6-1.4-2.3-4-1.5-5.6c0.2-0.3,0.1-0.9-0.2-1.4
		c-0.2-1.3-0.3-3.1-0.4-3.9c0-1.7-0.3-3.9-0.8-4.8c-0.8-2.3-1.3-5.5-1-7.3c0.2-3.3,0-7.7-0.5-9.8c-0.2-0.4-0.2-1.1-0.1-1.5
		c1.4-2.8,1.7-6.7,0.6-8.8c0.1-0.2,0-0.8-0.4-1.3c-0.8-0.9-1.2-2.3-0.8-3.2c-0.6-5.8-1.5-12.1-1.9-14.2c-0.7-1.4-1.1-3.2-0.8-4.2
		c0.5-1.7,0.6-4.8-0.5-7.8c-1.5-4-1.4-9.2,0.1-11.6c1-2.5,1.9-5.8,1.8-7.5c0.2-0.9,0.2-2.2,0-2.9c-1-2-1.1-4.7-0.1-5.9
		c-0.2-2.1,0.1-4.7,0.6-5.9c1.5-3.2,2.3-7.8,1.8-10.2c0-4.9,0.7-11.3,1.4-14.3c-0.1-0.6,0.2-1.4,0.5-1.9c0.9-3.5,1.2-8.4,0.7-10.8
		c-0.3-1.1-0.3-2.6-0.1-3.4c0.4-3.1,0.5-7.4,0.1-9.4c-0.1-0.8-0.1-1.9,0.1-2.5c0.3-2,0.6-4.6,0.8-5.9c0.4-2.7,0.1-6.2-0.6-7.9
		c-0.4-1.2-0.7-2.9-0.6-3.8c0.7-4.4,1.3-9.2,1.2-10.8c0.5-1,0.7-2.6,0.6-3.6c-0.3-1.8-0.9-4.9-1.5-7.9c-0.1-0.5-0.1-1.1-0.1-1.5
		c0.8-3,1.6-6.4,2-7.5c0.2-0.8,0.4-1.9,0.3-2.3c-0.1-0.8-0.3-2.4-0.6-4.1c-0.1-0.6-0.3-1.4-0.5-1.8c-2.2-2.9-3.5-7.4-3.1-10.2
		c-0.5-3.9-0.5-9.1,0-11.7c0-2.1,0.5-5,1.1-6.3c0.2-1.1,0.6-2.3,0.8-2.7c0.1-0.3,0-1-0.1-1.5c-0.3-1-0.9-2.9-1.5-4.8
		c-1.3-4.1-2.2-9.8-2.1-12.7c0-1-0.1-2.3-0.2-3.1c0.6,0,1.1,0,1.6,0.1c1.9,0,3.3-1.4,3-3.1c-0.2-1.7,0.2-3.5,1-4.2
		c0.4-0.7,0.8-1.5,0.7-1.8c0.1-0.2,0-0.7-0.2-1.2c-0.3-0.8-1-2.3-1.4-3.9c-0.5-2.2-0.9-4.9-0.9-5.9c-0.1-0.7-0.1-1.6,0.1-1.9
		c0.3-0.6,1-2.2,1.3-2.9c0.2-0.4,0.3-1,0.2-1.3c-0.1-0.6-0.4-1.5-0.5-2.4c-0.1-0.8,0-1.8,0.2-2.4c0.2-0.9,0.6-2.1,0.9-2.7
		c0-0.9-0.3-1.8-0.7-2.1c-0.1-0.2,0.2-0.7,0.6-0.9c0.7-0.5,2.2-1.5,1.5-3.2c-1.1-2.8-2.6-6.4-3.5-8.2c-1.1-1.1-1.6-3-1-4.2
		c0.3-1.2,0.3-2.8,0.1-3.6c-0.6-2.3,0.1-4.9,1.6-5.8c0.2-0.1,0.4-0.4,0.4-0.7c1-1.3,1.3-3.1,0.7-4.1c-1-3.8-1.5-9-1.2-11.6
		c0.1-0.6-0.1-1.5-0.5-1.9c-2.1-2.3-3.2-5.8-2.5-7.9c0-2.4,0.4-5.4,0.8-6.9c0.3-1.5,0-3.5-0.6-4.3c-0.5-0.7-0.9-1.9-0.8-2.6
		c1-2,1.6-4.8,1.3-6.3c1-1.7,0.7-3.9-0.7-4.9c-0.3-0.2-0.4-0.7-0.3-0.9c0-0.1,0.3-0.8,0.7-1.6c0.7-1.5,0.7-1.5,0.4-2.9
		c-0.2-0.8,0-2,0.5-2.6c0.9-1.2,1.8-3.8,0.6-6.8c-0.4-1-0.5-2.4-0.2-3.2c0-0.9,0.2-2.2,0.3-2.8c-0.3-1.3,0.1-2.9,0.8-3.5
		c0.8-1.4,1.9-3.3,2.3-4.3c1.1-1.6,1.2-3.8,0.2-4.8c0.1-0.4,0.3-0.9,0.3-1.2c0.2-1.5-0.6-2.8-1.7-2.8c-0.9-0.3-2.1-0.6-2.8-0.6
		c-2.2-0.2-5.1-0.3-6.6-0.3c-5.2,0-12.2,0-15.6,0.1L499.2,29.1z"/>
	<path class="st1" d="M6.5,100.7C6.5,100.7,6.5,100.7,6.5,100.7C6.5,100.7,6.5,100.7,6.5,100.7L6.5,100.7z"/>
	<path class="st1" d="M465.6,702.2C465.6,702.2,465.6,702.2,465.6,702.2C465.5,702.2,465.5,702.3,465.6,702.2L465.6,702.2z"/>
</g>
<path class="st1" d="M404.3,30.5"/>
</svg>
