<?xml version="1.0" encoding="utf-8"?>
<!-- Generator: Adobe Illustrator 25.4.1, SVG Export Plug-In . SVG Version: 6.00 Build 0)  -->
<svg version="1.1" id="Layer_1" xmlns="http://www.w3.org/2000/svg" xmlns:xlink="http://www.w3.org/1999/xlink" x="0px" y="0px"
	 viewBox="0 0 1400 311.6" style="enable-background:new 0 0 1400 311.6;" xml:space="preserve">
<style type="text/css">
	.st0{fill:#604822;}
</style>
<path class="st0" d="M-343.3,167.5c0,0,0.1,0,0.1-0.1c-0.1,0-0.2,0-0.3-0.1C-343.5,167.4-343.3,167.5-343.3,167.5z"/>
<path class="st0" d="M1395.2,17.4c-6.4-0.5-12-0.5-18.3,0.1c-7,0.7-15.2,1.4-22,0.8c-10.7-0.9-20.6-1.4-31.2-0.3
	c-2.5,0.2-5.9-0.5-9-0.7c-9.2-0.6-18.7-2-27.5-1.6c-9.7,0.4-18.6-0.3-27.9-0.5c-11.3-0.3-21-1.3-26.5-4.4
	c-14.2-1.1-27.7-1.8-40.1-0.4c-13.3,1.5-25.5,1.4-38.3-0.3c-4.7-0.6-9.7-1.2-14.6-1.3c-11-0.2-20.6-1.4-29.9-3.2
	c-0.9-0.2-2.4,0-4.8,0.1c-4.8,3.5-16.8,4.5-25.5,6.8c-2.5-0.5-4.2-0.8-5.5-1.2c-4.6-1.5-9.5-1.9-15.4-1c-2.2,0.3-4.8,0.5-7.2,0.6
	c-5.8,0.2-11.3,0.1-14.7-1.9c-0.7-0.4-3.1-0.6-4.3-0.8c-1.1,0.1-2,0-2.3,0.1c-5.4,2.3-10.6,4.6-21.1,2.1c-1-0.2-3.5,0.2-5.3,0.2
	c-4.9,0.2-9.9,0.6-14.8,0.5c-6.4-0.1-12,0.2-18.1,1c-8.5,1.2-17.8,1.6-27.5,1.3c-12.3-0.4-24.8-1.5-36.9,0.4c-1.5,0.2-4.1,0.3-5.5,0
	c-10.5-2.1-22.5,1.2-32.9-1.2c-0.8-0.2-3.8,0.2-4.9,0.5c-3.4,1.2-7.6,0.9-12,1.1c-21.6,0.7-44,0.5-62.6,4.2
	c-12.7-1.6-24.4-1.8-35.6-0.3c-14.8,2.1-30,1.8-43.7-0.6c-9.2-1.6-18.9-1.9-28.3-3c-3.3-0.4-8.1-0.5-10.8,0
	c-7.6,1.4-14.9-0.3-22.1,0c-7.8,0.3-15.6,0.1-22.1-1.1c-12-2.3-25.3-2.9-38.1-3c-18.3-0.2-35.1-3.5-53.7-2.6c-2.1,0.1-4.6-0.6-7-0.8
	C514.3,5.6,501,4.5,487,5.7c-4,0.3-8.7,0.3-12.8,0c-11.8-0.7-23.4-1.3-35.4-0.5c-2.9,0.2-6.2-0.1-9.2-0.3c-7.4-0.4-14.8-1-22.2-1.4
	c-10-0.6-19.8-0.7-29.5,0.6c-4.4,0.6-9.9,1.1-14.4,0.8c-16.4-1.2-34-0.7-47.3-3.5c-13.5,0.9-24.9,1.6-36.5,2.4
	c-1.8,0.1-3.8,0.2-5.5,0c-11.3-1.2-22.5-2.5-33.9-3.8c-5.9,0.3-12,0.5-18.2,0.9c-2.4,0.1-5.2,0.2-6.9,0.7
	c-10.9,3.1-24.7,3.6-38.2,4.2c-14.5,0.6-29.3-0.1-44-0.4c-8-0.1-15.9-1.1-23.8-1.8c-4.2-0.4-8.2-1.1-12-1.6
	c-7.5,0.8-14.6,1.6-21.6,2.4C60.3,6.1,44.6,7.4,28,7.1C23.6,7,18.6,6.8,15,7.4C10.2,8.2,5.1,8.7,0,9.1v86.5V235v76.6h1400v-74.7
	V95.6V17.7C1398.4,17.7,1396.8,17.6,1395.2,17.4z"/>
</svg>
