<?xml version="1.0" encoding="utf-8"?>
<!-- Generator: Adobe Illustrator 25.4.1, SVG Export Plug-In . SVG Version: 6.00 Build 0)  -->
<svg version="1.1" id="Layer_1" xmlns="http://www.w3.org/2000/svg" xmlns:xlink="http://www.w3.org/1999/xlink" x="0px" y="0px"
	 viewBox="0 0 223.7 73.8" style="enable-background:new 0 0 223.7 73.8;" xml:space="preserve">
<style type="text/css">
	.st0{fill:#604822;}
</style>
<g>
	<path class="st0" d="M171.3,37.7c0,2.2-2.4,3.2-4.6,3.2h-1.3c-2.3,0-5.4-1.1-5.4-3.3v-6.1c0-1.8,0.3-2.8,0.3-4.5
		c0-0.6,0.1-1.3,0.1-2c0-0.6-0.1-1.1-0.3-1.4c-0.2-0.4-0.6-0.5-0.9-0.5c-0.3,0-0.7,0.1-1.1,0.1c-0.9,0-1.2,0.1-2.2,0.1
		c-0.3,0-0.8-0.3-0.8-0.7c0-0.2,0.2-0.8,0.6-0.9c2.3-0.7,4.4-0.7,5.2-2.8c0.5-1.3,0.7-1.7,1.1-3c0.3-0.8,0.7-2,1.6-2
		c0.9,0,1.1,1.5,1.1,2.6V17v0.5c0,0.7,0.2,0.8,0.2,1.7c0,0.5-0.3,1.1-0.3,1.5c0,0.2,0.1,0.4,0.3,0.4h0.4h0.7c0.6,0,1.7,0.3,1.7,0.9
		c0,0.6-0.4,1-1,1.1l-1.5,0.1c-0.3,0.1-0.3,0.5-0.3,0.8c0,1,0.1,2.2,0.1,3.2c0,1.3-0.2,2.2-0.2,3.5c0,3.1-0.1,4.1-0.1,7.1
		c0,1.2,0.3,2.1,1.5,2.1h1.4c0.7,0,1.2-0.4,1.2-1.1c0-1-1.3-1.2-1.3-2.2c0-0.7,0.8-1.4,1.6-1.4C170.1,35.3,171.3,36.5,171.3,37.7
		 M150,27.3c0-3-3.7-4.1-6.3-4.1c-2.7,0.1-6,2-6,3.7c0,1.6,0.8,1.6,3.8,1.6h6.6C149,28.4,150,28.1,150,27.3 M156.3,36
		c0,0.6-0.2,1.1-0.7,1.6c-2.4,2.3-6.2,3.8-10.4,3.8c-7.4,0-13.3-3.1-13.3-10.2c0-5.6,5.4-10.2,12.8-10.2c4.6,0,7.4,2,9.4,5.4
		c0.5,0.8,0.8,2,0.8,3c0,0.5-0.2,1.1-0.8,1.1h-7.8h-4.2c-0.9,0-1.8-0.2-2.7-0.2c-0.4,0-1.7,0.2-2,0.5c-0.2,0.3-0.3,0.9-0.3,1.7
		c0,0.6,0.1,1.3,0.3,2c0.6,1.5,1.8,3,2.7,3.5c1,0.6,3,1.5,5.6,1.5c3,0,5.7-1.2,7.5-3.2c0.6-0.7,0.9-1.6,1.8-1.6
		C155.8,34.7,156.3,35.3,156.3,36 M131.8,40.5c0,0.4-0.3,0.5-0.7,0.5c-0.3,0-0.7-0.1-1.1-0.1c-1.7,0-2.6-0.4-4.3-0.4
		c-1.1,0-1.8,0.3-3,0.3c-0.6,0-1.5,0.2-2.1,0.2c-0.6,0-1.1-0.2-1.1-0.8c0-0.8,1.5-0.4,2.6-1.5c0.7-0.6,0.9-1.2,0.9-1.8
		c0-0.4-0.1-0.8-0.1-1.2v-0.2c0.1-0.8,0.2-1.9,0.2-2.6c0-2.1,0-3.1-0.2-5.1c0-3.6,0.2-8.8,0.2-13.4c0-2.3,0-4.4-0.2-6.2
		c-0.1-0.9-0.2-2.2-1.1-2.2c-0.7,0-1.3,0.6-2.1,0.8c-0.1,0-0.2,0.1-0.3,0.1c-0.4,0-0.9-0.2-0.9-0.6c0-1.3,2.6-2,4.2-3.2
		c1.7-1.3,2.2-3.2,3.7-3.2c0.8,0,0.8,0.4,0.8,1.2c0,1.1-0.1,1.2-0.1,2.3c0,0.4,0.1,1.8,0.1,2.2c0,1.8,0.1,3.2,0.1,5.1
		c0,1,0.2,5.3,0.2,6.3c0,2.2,0.1,3.7,0.1,5.9c0,1.6-0.1,2.2-0.1,3.5c0,0.5,0,1,0.1,1.6v6.3c0,1.6,0.2,3.7,1.5,4.6
		C130.4,39.7,131.6,39.2,131.8,40.5 M114.1,31c0-5.1-2.2-7.3-5.2-7.3c-4.2,0-6.3,2.7-6.3,7.4c0,6.4,2.3,7.6,5.6,7.6
		C111.2,38.8,114.1,36.4,114.1,31 M119,31.1c0,5.4-3.2,10.2-10.2,10.2c-2.1,0-4-1.3-5.4-1.3c-0.5,0.4-0.6,2.6-0.6,3.8v1.9v18.7
		c0,0.2-0.1,0.5-0.1,0.8c0.3,1.6,2.3,1,2.3,2.2c0,0.8-0.9,1.3-1.6,1.7c-0.1,0.1-0.2,0.1-0.2,0.1c-1.7,0.9-2.8,0.9-4.5,1.7
		c-1.5,0.7-1.8,0.7-3.1,1.5c-0.9,0.6-1.2,1.1-2.7,1.5h-0.2c-0.4,0-1-0.3-1-0.7c0-1,1-1.3,2.2-2.1c1.5-1,2.7-1.8,3.7-3.3
		c0.4-0.7,0.6-1.4,0.6-2.1c0-0.4-0.1-0.9-0.1-1.3v-0.3v-0.6V52.5c0-0.8,0.1-1.2,0.1-2v-4.1v-0.7c0.1-1.5,0.2-2.5,0.2-4.1
		c0-3.6-0.2-5.2-0.2-8.8c0-1.6,0.1-2.8,0.1-4.4c0-1.3-0.4-3-1.7-3c-1.2,0-2.3,1.2-2.9,1.2c-0.5,0-1.1-0.6-1.1-1.1
		c0-0.6,2.4-1.8,3.7-2.7c1.7-1.3,2.3-2.3,4.5-2.8c0.1,0,0.2-0.1,0.3-0.1c0.6,0,0.9,0.6,0.9,1.2c0,0.6-0.2,1.2-0.2,1.8
		c0,0.4,0.2,0.7,0.6,0.7c0.2,0,0.4-0.1,0.6-0.2c2-1.4,4-2.2,5.8-2.2C115.2,21.1,119,24.8,119,31.1 M95.8,40.4c0,0.2-0.2,0.4-0.4,0.4
		c-1,0-1.6-0.3-2.6-0.3c-1,0-1.5,0-2.5-0.1H89c-1.2,0-3,0.2-4.2,0.2c-0.6,0-1.1,0.2-1.7,0.2c-0.4-0.1-0.8-0.1-0.8-0.6
		c0-0.7,0.9-0.7,1.3-1.2c0.3-0.5,0.8-0.6,0.8-1.3c0-2-1.6-3.3-2.7-4.9c-0.6-0.8-0.9-1.5-1.5-2.4c-1-1.4-1-1.8-1.8-3.2
		c-0.1-0.1-0.2-0.2-0.2-0.3c-0.9-1.3-2.1-3.1-3.6-3.1c-2.3,0-3.7,2.8-3.7,4.5c0,0.9,0.4,1.4,0.8,2.3c0.8,1.8,1.1,2.1,1.6,4.1
		c0.4,1.4,1,2.2,1.9,3.3c0.5,0.6,1.3,0.9,2,1.3c0.6,0.3,1.5-0.1,1.5,0.6c0,0.5-0.4,0.7-0.9,0.7c-2,0-4.2-0.3-6.2-0.3
		c-0.9,0-1.5,0.2-2.4,0.2c-0.3,0-0.6,0.1-0.8,0.1c-0.3,0-0.6-0.1-0.6-0.4c0-1.1,2-0.7,2-1.8c0-0.9-0.6-1.6-1-2.3
		c-1.2-2.5-1.2-3.1-2.1-5.4c-0.6-1.5-1.3-2-2-3.4c-0.7-1.5-1.2-3.5-2.8-3.5c-2.2,0-2.7,2.7-2.7,4.9c0,1.2,0.2,2,0.2,3.1
		c0,0.7-0.1,0.9-0.1,1.7c0,0.3-0.1,1-0.1,1.4c0,1.8,0.9,3.8,1.5,4.3c0.8,0.8,1.7,0.4,1.7,1.1c0,0.4-0.4,0.5-1.1,0.5
		c-1.9,0-3.5-0.3-5.5-0.3c-0.9,0-2,0.1-2.9,0.1c-0.4,0-0.9,0.2-1.3,0.2c-0.2,0-0.4-0.1-0.4-0.3c0-0.6,0.6-0.8,1.1-1
		c1.2-0.6,2.1-0.5,2.5-1.7c0.1-0.1,0.1-0.3,0.1-0.6v-0.6v-0.3l0.1-1.6c0-0.3,0.1-0.6,0.1-0.8c0-0.7-0.1-1-0.1-2.1c0-1-0.1-2-0.1-3
		c0-1.6-0.1-3.2-1.9-3.2h-0.3c-0.4,0.1-0.8,0.2-1.2,0.2c-0.3,0-0.6-0.4-0.6-0.5c0-0.7,1-1.1,1.8-1.6c1-0.6,2.2-0.6,3.1-1.4
		c0.8-0.8,2-1.7,2.7-1.7c0.1,0,0.2,0,0.3,0.1c0.4,0.3,0.6,0.4,0.6,0.7c0,0.2-0.1,0.4-0.1,0.7v0.6c0,0.3,0.4,0.7,0.5,0.7
		c1.2-1.2,2.8-2.2,4.3-2.2c1.9,0,3.8,1.7,4.4,3.6c0.2,0.4,0.8,1.1,1.4,1.1c0.4,0,1.3-3.1,4.2-4.4c0.5-0.2,3.5-0.3,4-0.3
		c2.7,0,3.7,2.9,5.2,5.1c1.5,2.2,1.9,3.3,3.4,5.5c1.1,1.6,1.8,2.5,3.1,4c0.4,0.6,0.8,1.6,1.4,2c1.1,0.8,1.6,0.7,2.9,1.2
		C95,39.4,95.8,39.4,95.8,40.4 M43.5,27.3c0-3-3.7-4.1-6.3-4.1c-2.7,0.1-6,2-6,3.7c0,1.6,0.8,1.6,3.8,1.6h6.6
		C42.4,28.4,43.5,28.1,43.5,27.3 M49.8,36c0,0.6-0.2,1.1-0.7,1.6c-2.5,2.3-6.2,3.8-10.4,3.8c-7.4,0-13.3-3.1-13.3-10.2
		c0-5.6,5.4-10.2,12.8-10.2c4.6,0,7.4,2,9.4,5.4c0.5,0.8,0.8,2,0.8,3c0,0.5-0.2,1.1-0.8,1.1h-7.8h-4.2c-0.9,0-1.8-0.2-2.7-0.2
		c-0.4,0-1.7,0.2-2,0.5c-0.2,0.3-0.3,0.9-0.3,1.7c0,0.6,0.1,1.3,0.3,2c0.6,1.5,1.8,3,2.7,3.5c1,0.6,3,1.5,5.6,1.5
		c3,0,5.7-1.2,7.5-3.2c0.6-0.7,0.9-1.6,1.8-1.6C49.3,34.7,49.8,35.3,49.8,36 M33.1,10.1c0,0.1-0.7,0.5-0.9,0.4c-1,0-1.7-1.2-2.3-1.9
		c-1-1.3-1.5-1.3-3.2-1.6c-1.8-0.3-3.1-0.3-4.7-0.3h-1.5c-1.1,0-1.5,0.6-1.5,1.7l-0.1,4.5c0,2,0.2,3.7,0.2,5.7v3.7
		c0,1.7,0.1,2.6,0.1,4.4c0,1-0.2,1.7-0.2,2.7c0,1.3,0.1,2.1,0.1,3.4c0,1.1-0.1,2.3-0.1,3.3c0,0.3-0.1,0.5-0.1,0.7
		c0,0.5,0.1,0.9,0.5,1.3c1.1,1.2,3.7,1,3.7,2.1c0,0.8-0.4,0.8-0.9,0.8h-0.4c-1,0-1.8-0.4-2.8-0.4c-0.8,0-2.3-0.1-3.5-0.1
		c-0.4,0-0.7,0.1-1,0c-1.2,0.1-1.6,0.4-2.8,0.4c-0.6,0-1.1-0.4-1.1-0.9c0-1.1,2.4-0.9,3.1-2.1c0.3-0.6,0.4-1,0.4-1.5v-1v-0.4
		c0.2-2.5,0.2-5.1,0.2-7.6c0-1.7-0.1-3.5-0.1-5.2v-2.9c0-0.6-0.1-2.7-0.1-3.4c0-1.8,0.1-3.6,0.1-5.6c0-0.8,0-1.4-0.7-3.1
		c-0.1-0.3-0.3-0.6-0.7-0.6c-0.7-0.1-1.3-0.1-2.2-0.1c-1.2,0-1.9,0.1-3.1,0.1C5.6,6.6,4.4,7,3.1,8.3c-1,0.8-1.1,2.2-2.4,2.2
		C0.4,10.5,0,10.1,0,9.8c0-1.3,0.9-2.2,1.5-3.3c0.8-1.5,1.5-4,2.3-4c0.8,0,1.3,1.6,2.3,1.6c1.3,0,2.2,0.2,3.6,0.2
		c3.5,0,5.5-0.3,8.9-0.3c1.2,0,4,0.3,4.6,0.3c0.7,0,1.4,0.1,2,0.1c0.6,0,1.1-0.1,1.5-0.2c0.7-0.3,1.3-1,2.1-1c0.7,0,2,2.7,2.8,4
		C32.6,8.6,33.1,8.5,33.1,10.1 M223.7,40.7c0,0.5-0.7,0.6-1.2,0.6c-2,0-3.1-0.9-5.1-0.9L213,41c-0.5,0-1,0-1-0.4
		c0-1.3,2.7-0.6,2.7-1.9c0-0.9-0.6-1.3-0.8-2.3c-0.6-2.1-1.1-3.1-2-5.1c-0.8-1.7-1-2.8-1.9-4.5c-0.6-1.1-1.2-2.8-2.4-2.8
		c-1.7,0-3.2,1.5-3.2,3.2c0,0.7,0.1,0.7,0.1,1.5c0,1.3-0.2,2.7-0.2,4c0,0.7,0.1,1.2,0.1,1.7V37c0,0.4-0.1,0.7-0.1,1.1
		c0,0.3,0.1,0.6,0.3,0.9c0.7,0.8,2.1,0.3,2.1,1.4c0,0.4-0.6,0.6-1,0.6c-1.1,0-1.7-0.5-2.8-0.5c-0.4,0-1.1,0.1-1.5,0.1
		c-0.4,0-0.6-0.1-1.1-0.1c-0.9,0-1.6,0.3-2.5,0.3c-0.4,0-0.9-0.2-0.9-0.7c0-1,1.5-1.2,2.4-1.6c0.6-0.2,0.6-0.8,0.6-1.5
		c0-0.6,0.1-1.1,0.1-1.6c0-1.7-0.2-2.5-0.2-4.2c0-0.4,0.1-0.8,0.1-1.2c0-0.3-0.1-0.6-0.1-0.9l0.3-3c0-0.3-0.4-0.9-0.7-0.9
		c-0.2,0-1.1,0.6-2.1,0.6h-0.3c-0.3-0.1-0.6-0.6-0.6-0.7c0-0.6,0.9-0.6,1.4-0.8c0.9-0.5,2-0.7,2.8-1.4c1.1-0.9,2.2-2.1,3.7-2.1
		c0.3,0,0.6,0.5,0.6,0.8c0,0.6-0.4,0.8-0.4,1.4c0,0.1,0.1,0.4,0.2,0.4c0.1,0,0.2-0.2,0.3-0.2c1.2-1,2.3-1.9,4.6-1.9
		c2.6,0,4,2.5,5.1,4.9c0.9,2.1,1.5,3.3,2.4,5.4c1,2.2,1.3,3.5,2.5,5.6c0.7,1.3,1.6,1.8,2.9,2.6C222.8,39.9,223.7,40,223.7,40.7
		 M180.8,23c-0.5,0-1.1,0.1-1.5,0.4c-0.7,0.4-1.2,1.2-1.4,2c-0.3,1.2-0.3,2.3,0.1,4.1c0.2,1,0.9,2.7,1.6,3.9c0,0.1,0.1,0.1,0.1,0.2
		c0.8,1.4,1.7,2.6,2.8,3.4c1.9,1.4,3.6,2.2,5.1,2.1c0.4-0.1,0.8-0.2,1.1-0.4c0.7-0.4,1.2-1.1,1.4-2l0.1-0.3c0.4-1.5,0.2-2.6-0.2-4.2
		c-0.3-1.2-0.8-2.6-1.6-3.9c-0.9-1.6-2.1-2.9-3.4-3.8C183.4,23.7,182.1,22.9,180.8,23 M183.5,20.8c2.1,0,4.5,0.2,6.1,1.2
		c1.5,0.9,2.7,2.3,3.6,3.9c0.7,1.1,1,2.4,1.2,3.7c0.2,1.4-0.2,3.2-0.6,4.5c-0.7,2.5-2.2,4.7-4.7,6.1c-1.4,0.8-2.8,1.1-4.3,1.2
		c-0.9,0-1.8,0-2.7-0.2c-1.5-0.3-3.3-1.1-4.4-2c-1-0.8-2.1-1.9-2.6-3.2c-1.8-4.1-1.1-6-0.8-7.3c0.1-0.5,0.2-0.9,0.4-1.3
		c0.8-2.2,2.3-4.2,4.5-5.4c1.3-0.8,2.7-1.2,4-1.2L183.5,20.8z"/>
</g>
</svg>
